<svg width="32" height="61" viewBox="0 0 32 61" fill="none" xmlns="http://www.w3.org/2000/svg">
<path d="M11.4758 17.1345C11.9873 17.5279 12.4917 17.6281 12.7687 17.5422C13.2518 17.3992 13.6283 17.2632 13.9267 17.1559C14.4381 16.9699 14.8359 16.8268 15.2835 16.8268H16.1075C16.5551 16.8268 16.96 16.9699 17.4643 17.1559C17.7698 17.2632 18.1392 17.3992 18.6223 17.5422C18.8993 17.6209 19.4037 17.5279 19.9152 17.1345C20.2419 16.8841 21.002 16.1543 20.9665 14.8523C20.9168 12.8133 20.0856 11.3968 19.0911 10.4453C18.743 10.1162 18.3736 9.82289 17.99 9.5868C16.9458 8.93577 15.9725 8.68538 15.6955 8.67822C15.4185 8.68538 14.4381 8.93577 13.401 9.5868C12.9747 9.86582 12.5769 10.152 12.2999 10.4453C11.3054 11.3968 10.4742 12.8133 10.4245 14.8523C10.389 16.1543 11.1491 16.8841 11.4758 17.1345Z" fill="white"/>
<path d="M16.6542 37.5597V33.6678C16.8247 33.5963 16.9739 33.489 17.0662 33.3316C17.2651 32.981 17.1799 32.3944 16.846 31.8006C16.7536 31.636 16.7252 31.4572 16.7536 31.2855L17.4072 30.4556C17.9897 29.6186 17.8689 27.6225 17.6984 26.714C17.67 26.578 17.6842 26.4278 17.734 26.299L17.7695 26.1917L18.1886 25.0256L18.6717 23.6663C19.3749 21.6917 16.7181 20.1107 16.6897 20.0892C16.4482 19.9461 16.299 19.6886 16.299 19.4095V18.4366C16.228 18.4223 16.164 18.408 16.1072 18.408H15.2832C15.2263 18.408 15.1624 18.4223 15.0914 18.4366V19.4095C15.0914 19.6886 14.9422 19.9533 14.7006 20.0963C14.6722 20.1107 12.0154 21.6989 12.7258 23.6734L13.2088 25.0327L13.628 26.1989L13.6635 26.3062C13.7132 26.4421 13.7203 26.5852 13.699 26.7211C13.5214 27.6655 13.4006 29.6329 13.9903 30.4627L14.6438 31.2855C14.6722 31.4572 14.6438 31.6432 14.5515 31.8006C14.2105 32.3944 14.1252 32.981 14.3312 33.3316C14.4094 33.4675 14.5373 33.5605 14.6793 33.6321V37.5812C12.9531 38.3395 9.91979 40.7147 10.1187 45.6797C10.2039 47.7043 10.9214 49.2711 12.2711 50.3299C14.2602 51.9038 17.1372 51.9038 19.1263 50.3299C20.4689 49.2639 21.1935 47.7043 21.2788 45.6797C21.4848 40.6503 18.3733 38.2823 16.6613 37.5525L16.6542 37.5597Z" fill="white"/>
<path d="M17.7638 26.1919L18.1829 25.0258L18.666 23.6665C19.3693 21.692 16.7125 20.1109 16.684 20.0894C16.4425 19.9464 16.2933 19.6888 16.2933 19.4098V18.4368C16.2223 18.4225 16.1584 18.4082 16.1015 18.4082H15.3414C15.3414 18.4082 15.3556 18.4368 15.3627 18.4368V19.4098C15.3627 19.6888 15.5119 19.9535 15.7535 20.0894C15.7819 20.1037 18.4387 21.692 17.7354 23.6665L17.2524 25.0258L16.8332 26.1919L16.7977 26.2993C16.748 26.4352 16.7409 26.5783 16.7622 26.7142C16.9327 27.6228 17.0534 29.6188 16.4709 30.4558L15.8174 31.2857C15.789 31.4574 15.8174 31.6363 15.9097 31.8008C16.2507 32.3946 16.336 32.9813 16.13 33.3318C16.0589 33.4534 15.9382 33.6323 15.7961 33.8255C16.2081 33.8111 16.8261 33.7253 17.0534 33.3318C17.2524 32.9813 17.1671 32.3946 16.8332 31.8008C16.7409 31.6363 16.7125 31.4574 16.7409 31.2857L17.3944 30.4558C17.9769 29.6188 17.8562 27.6228 17.6857 26.7142C17.6573 26.5783 17.6715 26.428 17.7212 26.2993L17.7567 26.1919H17.7638Z" fill="#20AA4D"/>
<path d="M19.0928 10.4458C18.7447 10.1167 18.3753 9.82338 17.9917 9.58729C16.9475 8.93626 15.9742 8.68587 15.6972 8.67871C15.5551 8.67871 15.207 8.75741 14.7666 8.9148C15.1644 9.05788 15.6404 9.27251 16.1305 9.58014C16.5141 9.81623 16.8835 10.1024 17.2316 10.4386C18.2262 11.3901 19.0573 12.8067 19.107 14.8456C19.1425 16.1477 18.3824 16.8774 18.0557 17.1278C17.9775 17.185 17.8994 17.228 17.8212 17.278C18.0557 17.3567 18.3114 17.4497 18.6311 17.5427C18.9081 17.6214 19.4125 17.5284 19.924 17.135C20.2507 16.8846 21.0108 16.1548 20.9753 14.8528C20.9256 12.8138 20.0944 11.3973 19.0999 10.4458H19.0928Z" fill="#20AA4D"/>
<path d="M16.1516 37.3739C15.9527 37.3167 15.7964 37.1951 15.697 37.0305C15.5975 37.1951 15.4412 37.3167 15.2423 37.3739C15.0932 37.4168 14.9156 37.4812 14.7238 37.5671C16.4429 38.304 19.533 40.672 19.327 45.6871C19.2418 47.7117 18.3609 49.0925 17.1746 50.3373C16.6986 50.8381 16.1232 51.2244 15.491 51.4963C16.7768 51.5392 18.0696 51.1672 19.121 50.3373C20.4636 49.2713 21.1882 47.7117 21.2735 45.6871C21.5008 40.1211 17.6505 37.8032 16.1516 37.3811V37.3739Z" fill="#20AA4D"/>
<path d="M21.6916 9.4512C21.8124 9.4512 21.9403 9.42259 22.0539 9.3582L24.5545 8.04183C24.7818 7.92736 24.931 7.70558 24.9665 7.45519L25.4709 3.85664L26.9556 1.28829C27.1758 0.909114 27.0479 0.429784 26.6714 0.208004C26.2949 -0.0137753 25.819 0.115 25.5987 0.494171L24.0359 3.19845C23.9862 3.2843 23.9507 3.38446 23.9364 3.48462L23.4676 6.83277L21.3222 7.96313C20.9386 8.16345 20.7895 8.64278 20.9884 9.02911C21.1304 9.30096 21.4004 9.4512 21.6845 9.4512H21.6916Z" fill="#001457"/>
<path d="M5.92159 3.85638L6.42596 7.45494C6.46148 7.70533 6.61776 7.92711 6.83798 8.04158L9.33851 9.35795C9.45217 9.42234 9.58004 9.45095 9.70081 9.45095C9.98496 9.45095 10.2549 9.29356 10.397 9.02886C10.5959 8.64253 10.4467 8.1632 10.0631 7.96288L7.91775 6.83252L7.4489 3.48437C7.4347 3.38421 7.39918 3.28405 7.34945 3.1982L5.78661 0.493921C5.5664 0.11475 5.09044 -0.00687101 4.71394 0.207754C4.33744 0.429534 4.21668 0.908864 4.42979 1.28804L5.91448 3.85638H5.92159Z" fill="#001457"/>
<path d="M31.0054 22.6719C30.6218 22.4716 30.1458 22.6147 29.9469 23.001L25.5994 31.3213L22.1327 33.0168C21.536 32.0725 20.0797 31.0709 19.0923 30.5415C19.277 30.0264 19.3623 29.4541 19.3978 28.9103C20.5202 29.4541 21.0885 29.59 21.4153 29.59C21.6 29.59 21.7065 29.5471 21.7918 29.5184C21.8131 29.5113 21.8202 29.497 21.8415 29.4898C21.9409 29.4541 22.0262 29.3897 22.0972 29.3181C22.1185 29.2967 22.1327 29.268 22.1541 29.2466C22.2038 29.1893 22.2393 29.1321 22.2748 29.0606C22.289 29.032 22.3174 29.0105 22.3245 28.9819C22.3601 28.8889 22.3885 28.7816 22.3814 28.6099L23.3049 22.9652L25.1661 20.6115C25.23 20.5256 25.2797 20.4326 25.3081 20.3325L27.5956 12.4843L28.8529 10.7173C29.1087 10.3595 29.0234 9.87306 28.6753 9.61551C28.3201 9.36512 27.8371 9.44381 27.5814 9.79437L26.26 11.6545C26.2316 11.6974 26.2245 11.7403 26.2032 11.7832C26.1748 11.8333 26.1393 11.8762 26.1251 11.9335L23.8448 19.7458L21.948 22.1425C21.948 22.1425 21.9196 22.1997 21.9054 22.2283C21.8983 22.2426 21.8912 22.2641 21.877 22.2784C21.8344 22.3571 21.8131 22.4358 21.7989 22.5145C21.7989 22.5217 21.7989 22.5288 21.7918 22.536L21.1808 26.2633C20.7049 25.5908 20.2858 25.0972 19.9377 24.7967L20.1508 24.1957C21.0885 21.5773 18.8224 19.6457 17.8705 18.9732V18.9517C17.977 18.9875 18.0765 19.0161 18.1972 19.0519C18.4032 19.1091 18.6235 19.1449 18.8437 19.1449C19.5114 19.1449 20.236 18.8802 20.8825 18.3794C21.9765 17.5352 22.5803 16.2331 22.5448 14.8023C22.4666 11.5972 20.8114 9.69421 19.4475 8.66401C18.0196 7.59088 16.3716 7.09009 15.7109 7.09009C15.0503 7.09009 13.4022 7.59088 11.9743 8.66401C10.6033 9.69421 8.9552 11.5972 8.87706 14.8023C8.84154 16.226 9.44536 17.528 10.5393 18.3794C11.3989 19.0447 12.4005 19.2951 13.2246 19.0519C13.3382 19.0161 13.4448 18.9875 13.5514 18.9517V18.9732C12.5994 19.6457 10.3333 21.5701 11.271 24.1957L11.4842 24.7967C11.129 25.0972 10.7169 25.5908 10.241 26.2633L9.63006 22.5431C9.63006 22.5431 9.63006 22.5288 9.62296 22.5217C9.60875 22.4358 9.58033 22.3571 9.54481 22.2856C9.53771 22.2713 9.53061 22.2498 9.5164 22.2355C9.50219 22.2069 9.49509 22.1783 9.47378 22.1496L7.57706 19.753L5.29674 11.9406C5.28254 11.8834 5.24702 11.8405 5.2186 11.7904C5.19729 11.7475 5.19019 11.7045 5.16177 11.6616L4.11041 10.1878C4.11041 10.0161 4.082 9.84445 3.97544 9.70136L2.65413 7.84128C2.4055 7.48357 1.91534 7.40487 1.56015 7.66242C1.20496 7.91997 1.12682 8.40646 1.38255 8.76417L2.43391 10.2379C2.43391 10.4096 2.46233 10.5813 2.56889 10.7244L3.82626 12.4915L6.11368 20.3396C6.1421 20.4398 6.19182 20.5399 6.25576 20.6186L8.11695 22.9724L9.04045 28.6027C9.02624 28.7816 9.06176 28.896 9.09728 28.989C9.11148 29.0248 9.1399 29.0463 9.15411 29.0749C9.18252 29.1393 9.21804 29.1893 9.26066 29.2394C9.28197 29.268 9.30329 29.3038 9.3317 29.3253C9.40274 29.3897 9.48798 29.4469 9.57323 29.4827C9.59454 29.4898 9.60875 29.5113 9.63006 29.5184C9.71531 29.5542 9.82186 29.59 10.0066 29.59C10.3333 29.59 10.9087 29.4612 12.024 28.9103C12.0596 29.4541 12.1448 30.0264 12.3295 30.5415C11.3492 31.0709 9.8858 32.0796 9.28908 33.0168L5.82242 31.3213L1.4749 23.001C1.276 22.6147 0.800041 22.4716 0.416436 22.6719C0.0328311 22.8722 -0.109245 23.3515 0.0896615 23.7379L4.55795 32.2943C4.63609 32.4517 4.76396 32.559 4.91314 32.6305L9.5164 34.8769C9.60875 34.9413 9.71531 34.9985 9.82897 35.0343C9.86449 35.0486 9.9 35.0486 9.93552 35.0558H9.94973C10.0705 35.0844 10.2055 35.1059 10.3475 35.1059C11.2 35.1059 12.3224 34.648 13.1038 34.276C13.2033 34.4191 13.3311 34.5693 13.4945 34.7052V36.4294C12.7131 36.8586 11.8322 37.4953 11.0508 38.361C10.1984 39.2982 9.56613 40.3999 9.147 41.6162C9.147 41.6233 9.13279 41.6305 9.12569 41.6376L6.46177 46.1877C6.37652 46.3021 6.30548 46.4381 6.29128 46.6026L5.68035 59.6805C5.65193 60.1169 5.97871 60.4889 6.40494 60.5247C6.42625 60.5247 6.44046 60.5247 6.46177 60.5247C6.86668 60.5247 7.21477 60.2027 7.24318 59.7878L7.84701 46.9317L8.5858 45.6654C8.5858 45.6654 8.5858 45.7155 8.5858 45.737C8.68526 48.2409 9.61585 50.2012 11.335 51.5676C12.5781 52.5477 14.141 53.0915 15.7322 53.0915C17.3235 53.0915 18.8863 52.5477 20.1295 51.5676C21.8486 50.2083 22.7721 48.2481 22.8786 45.737C22.8786 45.7083 22.8786 45.6869 22.8786 45.6583L23.6174 46.9246L24.2213 59.7806C24.2497 60.1956 24.5907 60.5175 25.0027 60.5175C25.024 60.5175 25.0382 60.5175 25.0595 60.5175C25.4928 60.4889 25.8196 60.1097 25.7841 59.6733L25.1732 46.5955C25.159 46.4381 25.095 46.3021 25.0027 46.1805L22.3388 41.6305C22.3388 41.6305 22.3174 41.6162 22.3103 41.6018C21.8983 40.3856 21.259 39.291 20.4065 38.3467C19.6251 37.481 18.7442 36.8443 17.9628 36.4151V34.6909C18.1262 34.555 18.2541 34.4047 18.3535 34.2617C19.1349 34.6337 20.2573 35.0915 21.1098 35.0915C21.2519 35.0915 21.3797 35.0772 21.5076 35.0486H21.5289C21.5289 35.0486 21.6 35.0343 21.6284 35.02C21.742 34.9842 21.8415 34.927 21.9338 34.8626L26.5442 32.609C26.6863 32.5375 26.8141 32.423 26.8994 32.2728L31.3677 23.7164C31.5666 23.3301 31.4245 22.8507 31.0409 22.6504L31.0054 22.6719ZM19.341 26.4493C19.5896 26.7498 19.8666 27.1289 20.1153 27.501C19.8737 27.3865 19.6109 27.2506 19.3338 27.1003C19.3125 26.9143 19.2912 26.7498 19.2699 26.6282L19.3338 26.4421L19.341 26.4493ZM12.0596 27.1075C11.7825 27.2577 11.5197 27.3936 11.2781 27.5081C11.5268 27.1361 11.8109 26.7498 12.0525 26.4564L12.1164 26.6425C12.0951 26.7641 12.0738 26.9286 12.0525 27.1146L12.0596 27.1075ZM12.7699 17.5495C12.4929 17.6282 11.9885 17.5352 11.477 17.1417C11.1503 16.8913 10.3902 16.1616 10.4257 14.8595C10.4754 12.8206 11.3066 11.4041 12.3011 10.4526C12.5781 10.1592 12.9759 9.87306 13.4022 9.59405C14.4464 8.94302 15.4197 8.69262 15.6967 8.68547C15.9738 8.69262 16.9541 8.94302 17.9912 9.59405C18.3748 9.83014 18.7442 10.1163 19.0923 10.4526C20.0868 11.4041 20.918 12.8206 20.9677 14.8595C21.0032 16.1616 20.2431 16.8913 19.9164 17.1417C19.4049 17.5352 18.9005 17.6353 18.6235 17.5495C18.1404 17.4064 17.7639 17.2705 17.4655 17.1632C16.9541 16.9772 16.5563 16.8341 16.1087 16.8341H15.2847C14.8371 16.8341 14.4322 16.9772 13.9279 17.1632C13.6224 17.2705 13.253 17.4064 12.7699 17.5495ZM12.6705 32.7307C12.0667 33.0311 11.4273 33.2887 10.9514 33.4318C11.3918 33.0025 12.1164 32.4731 12.7699 32.0868C12.7131 32.3014 12.6847 32.516 12.6776 32.7307H12.6705ZM21.2803 45.6869C21.195 47.7115 20.4776 49.2783 19.1278 50.3371C17.1388 51.911 14.2617 51.911 12.2727 50.3371C10.9301 49.2711 10.2055 47.7115 10.1202 45.6869C9.8929 40.1209 13.7432 37.803 15.2421 37.3809C15.441 37.3236 15.5972 37.202 15.6967 37.0375C15.7962 37.202 15.9524 37.3236 16.1513 37.3809C17.6502 37.803 21.5005 40.1209 21.2732 45.6869H21.2803ZM15.036 35.8284V35.3634C15.2421 35.392 15.4623 35.4063 15.7038 35.4063C15.9453 35.4063 16.1656 35.392 16.3716 35.3634V35.8284C16.1016 35.8284 15.8459 35.9715 15.7038 36.2004C15.5617 35.9715 15.306 35.8284 15.036 35.8284ZM18.1901 25.0256L17.771 26.1917L17.7355 26.2991C17.6858 26.435 17.6787 26.5781 17.7 26.714C17.8705 27.6226 17.9912 29.6186 17.4087 30.4556L16.7552 31.2855C16.7268 31.4572 16.7552 31.6361 16.8475 31.8006C17.1885 32.3944 17.2737 32.9811 17.0677 33.3316C16.8191 33.7609 16.1016 33.8253 15.6967 33.8253C15.2918 33.8253 14.5743 33.7609 14.3257 33.3316C14.1268 32.9811 14.212 32.3944 14.5459 31.8006C14.6382 31.6361 14.6667 31.4572 14.6382 31.2855L13.9847 30.4628C13.4022 29.6329 13.5158 27.6655 13.6934 26.7212C13.7218 26.5852 13.7076 26.435 13.6579 26.3062L13.6224 26.1989L13.2033 25.0328L12.7202 23.6735C12.0169 21.6989 14.6738 20.1178 14.6951 20.0964C14.9366 19.9533 15.0858 19.6958 15.0858 19.4096V18.4366C15.1568 18.4223 15.2207 18.408 15.2776 18.408H16.1016C16.1584 18.408 16.2224 18.4223 16.2934 18.4366V19.4096C16.2934 19.6886 16.4426 19.9533 16.6841 20.0892C16.7125 20.1035 19.3694 21.6918 18.6661 23.6663L18.183 25.0256H18.1901ZM18.7371 32.7307C18.73 32.5232 18.6945 32.3086 18.6448 32.0868C19.2983 32.466 20.0158 33.0025 20.4634 33.4318C19.9874 33.2887 19.3481 33.0311 18.7442 32.7307H18.7371Z" fill="#001457"/>
</svg>
