<svg width="51" height="61" viewBox="0 0 51 61" fill="none" xmlns="http://www.w3.org/2000/svg">
<path d="M49.9433 44.368C49.7313 42.9298 49.3185 41.5198 48.7718 40.1715C47.3326 36.6491 44.973 33.593 42.4349 30.7673C39.9024 27.9415 37.1635 25.2955 34.7927 22.3293C34.1233 21.4923 33.493 20.6271 32.885 19.7451C32.2993 17.3126 30.1237 15.4868 27.5354 15.4868H24.2052C21.1762 15.4868 18.6939 17.9811 18.6939 21.0372V24.391C18.6939 26.2449 19.6087 27.8909 21.0089 28.8965C20.6407 29.0988 20.306 29.3572 20.0327 29.6662C17.8181 28.9471 16.206 26.846 16.206 24.3854V22.8181C13.9301 25.582 11.3641 28.0932 8.97102 30.756C6.4385 33.5818 4.07332 36.6379 2.63413 40.1602C2.08188 41.5085 1.67467 42.913 1.4627 44.3567C1.33998 45.1938 1.29535 46.0983 1.72488 46.8286C2.1544 47.5645 3.0023 47.9746 3.84461 48.0982C5.74679 48.3679 7.72707 47.4353 9.45633 46.7387C11.3585 45.9691 13.2049 45.0758 14.9676 44.0253C15.6091 43.6433 16.2395 43.2332 16.8587 42.8062C17.595 42.3006 18.3146 41.7669 19.0063 41.1995C19.5306 46.1713 21.2599 50.2161 25.1981 53.0419C25.7839 53.4632 26.5816 53.4857 27.1728 53.07C30.2799 50.8959 32.065 47.1825 32.6786 41.4018C33.8723 42.3568 35.133 43.2388 36.4439 44.0197C38.2066 45.0702 40.0586 45.9634 41.9552 46.7331C43.6789 47.4297 45.6592 48.3622 47.5613 48.0926C48.4037 47.9746 49.2516 47.5645 49.6811 46.823C50.105 46.0927 50.066 45.1882 49.9433 44.3511V44.368Z" fill="#20AA4D"/>
<path d="M47.5163 44.3665C47.3043 42.9283 46.8916 41.5183 46.3449 40.17C44.9057 36.6476 42.5461 33.5915 40.008 30.7658C37.4755 27.94 34.7365 25.294 32.3658 22.3278C31.6629 21.4458 30.9935 20.5301 30.3576 19.5976C30.2572 19.2212 30.1178 18.856 29.9448 18.519C29.9783 18.4291 30.0118 18.3392 30.0452 18.2549C30.2739 17.7044 29.638 17.4797 29.3759 17.6313C29.069 17.2381 28.712 16.8954 28.316 16.5977H28.9352C30.5863 16.5977 31.9418 15.2382 31.9418 13.5697V13.2101C31.9418 11.5473 30.5919 10.1821 28.9352 10.1821H22.7991C21.1479 10.1821 19.7924 11.5416 19.7924 13.2101V13.5697C19.7924 14.4741 20.1941 15.2831 20.8188 15.8393C20.5343 16.0584 20.2721 16.3505 20.0155 16.6482C19.6083 16.0303 18.66 16.0134 18.2472 16.6819V16.6932C17.3268 18.1707 16.3227 19.592 15.235 20.9459C13.8627 22.6649 12.3622 24.2772 10.8505 25.8839L15.1234 25.2042H15.129L9.85198 27.5524C9.85198 27.5524 9.82409 27.5524 9.81293 27.5524L9.11565 27.7266C8.60245 28.2715 8.09483 28.822 7.59279 29.3782C5.06026 32.2039 2.69508 35.26 1.2559 38.7824C0.703649 40.1307 0.296437 41.5351 0.0844634 42.9789C-0.0382581 43.816 -0.082884 44.7204 0.346641 45.4507C0.776166 46.1867 1.62406 46.5968 2.46638 46.7204C4.36856 46.99 6.34884 46.0575 8.07252 45.3609C9.9747 44.5912 11.8211 43.698 13.5838 42.6475C15.737 41.3666 17.7564 39.861 19.547 38.1026C20.2443 37.4229 20.9025 36.7038 21.5217 35.951C21.8675 35.5297 22.0572 34.996 22.0739 34.4511C22.1576 32.1871 22.1688 30.0636 22.0907 28.0861C22.0683 27.5524 22.046 27.0243 22.0126 26.5131C21.7894 22.9739 21.2595 19.9684 20.3893 17.5695C20.8244 17.5246 21.2818 17.7325 21.4715 18.1987C22.5146 20.7155 23.1338 23.9963 23.3792 27.9288C23.4127 28.4344 23.435 28.9569 23.4517 29.4849C23.4517 29.6366 23.4629 29.7883 23.4685 29.94C23.5243 31.7826 23.5131 33.7432 23.435 35.8274C23.4127 36.3724 23.223 36.9061 22.8828 37.3274C22.2636 38.0802 21.6054 38.7993 20.9081 39.479C19.653 40.7093 18.2807 41.8104 16.8359 42.8048C17.55 47.0462 19.3071 50.5236 22.8158 53.046C23.4015 53.4674 24.1992 53.4898 24.7905 53.0741C28.2435 50.6585 30.0676 46.3384 30.458 39.3835C30.5082 39.4285 30.5473 39.479 30.5975 39.5296C32.3881 41.2823 34.413 42.7935 36.5606 44.0744C38.3234 45.1249 40.1753 46.0181 42.0719 46.7878C43.7956 47.4844 43.2155 48.372 45.1177 48.1023C45.96 47.9844 46.8079 47.5743 47.2374 46.8327C47.6613 46.1024 47.6223 45.1979 47.4996 44.3609L47.5163 44.3665Z" fill="white"/>
<path d="M50.6738 44.2603C50.4618 42.8278 50.0546 41.3559 49.4521 39.8897C47.8512 35.9685 45.1513 32.6877 42.9814 30.272C42.0833 29.2664 41.1461 28.2777 40.2369 27.317L41.8044 27.5642C41.8434 27.5698 41.8769 27.5754 41.9159 27.5754L47.0925 28.8675C47.4663 29.0305 47.907 28.8563 48.0687 28.4799C48.2305 28.1035 48.0576 27.6653 47.6838 27.4968L42.3175 26.1541C42.2562 26.1261 42.2004 26.1148 42.139 26.1036H42.1279L38.7028 25.5643C38.6638 25.553 38.6247 25.553 38.5857 25.553C37.4756 24.3564 36.3767 23.1374 35.3671 21.8678C34.7367 21.0813 34.1398 20.2611 33.5653 19.424C33.5151 19.351 33.4593 19.2779 33.4091 19.2049L33.476 19.1094L38.7809 11.84C38.8367 11.7725 38.8702 11.7051 38.8981 11.6265C38.9037 11.6152 38.9092 11.604 38.9148 11.5872V11.5703C38.9316 11.5366 38.9483 11.5029 38.9539 11.4692L40.0639 7.12662C40.1588 6.72775 39.9133 6.32327 39.5117 6.22777C39.1156 6.13227 38.714 6.37945 38.6192 6.78393L37.537 11.0198L32.7453 17.587C32.4162 17.087 32.0145 16.6432 31.5627 16.2556C32.2488 15.5702 32.6728 14.6208 32.6728 13.5759V13.2107C32.6728 11.1321 30.9937 9.44116 28.9298 9.44116H22.7937C20.7297 9.44116 19.0507 11.1321 19.0507 13.2107V13.5759C19.0507 14.6264 19.4802 15.5702 20.1663 16.2556C19.6252 16.7218 19.1511 17.2724 18.7941 17.896L13.7737 11.0198L12.6915 6.78393C12.5966 6.38507 12.195 6.13227 11.799 6.22777C11.4029 6.32327 11.1519 6.72775 11.2467 7.12662L12.3568 11.4692C12.3679 11.5029 12.3791 11.5366 12.3902 11.5703V11.5872C12.3902 11.5872 12.407 11.6152 12.4126 11.6265C12.4404 11.6995 12.4795 11.7725 12.5297 11.84L17.9462 19.2611C17.3382 20.1543 16.6967 21.0251 16.0273 21.8621C15.0064 23.143 13.8964 24.3733 12.7751 25.5811L10.8506 25.8901L9.5286 26.098C9.47282 26.1092 9.42262 26.1317 9.37241 26.1541L3.96709 27.4968C3.59335 27.6597 3.42042 28.1035 3.58219 28.4799C3.74396 28.8563 4.17906 29.0305 4.55838 28.8675L9.11023 27.7384L9.80752 27.5642C9.80752 27.5642 9.83541 27.5642 9.84656 27.5642L11.1128 27.362C10.2203 28.3114 9.29989 29.2833 8.41295 30.272C6.24301 32.6933 3.54314 35.9741 1.94218 39.8953C1.34531 41.3616 0.932521 42.8334 0.720547 44.266C0.592247 45.1423 0.514152 46.2715 1.07756 47.2266C1.58518 48.0917 2.55021 48.6872 3.7328 48.8557C4.00056 48.895 4.26831 48.9119 4.53049 48.9119C6.16492 48.9119 7.76588 48.2546 9.19949 47.6647L9.72384 47.4513C11.2746 46.8277 12.7473 46.1255 14.1362 45.3727L12.3512 48.058C12.3512 48.058 12.3456 48.0973 12.34 48.1142C12.301 48.1984 12.2787 48.2883 12.2731 48.3894L11.4419 55.6364L10.3319 59.6981C10.2538 60.1026 10.5104 60.4958 10.912 60.5745C11.3136 60.6531 11.7041 60.3947 11.7822 59.9902L12.8923 55.9229C12.8979 55.8836 12.9034 55.8499 12.9034 55.8106C12.9034 55.7993 12.909 55.7937 12.909 55.7825L13.7346 48.631L17.0983 43.5637C17.5557 43.2491 18.0075 42.9345 18.4482 42.6031C18.4426 42.5525 18.4315 42.5076 18.4259 42.457C18.4817 42.4739 18.5375 42.4907 18.5933 42.502C18.5486 42.5357 18.4984 42.5694 18.4482 42.6031C18.5821 43.457 18.7439 44.2997 18.967 45.1086C19.3407 46.4738 19.8595 47.7659 20.5456 48.9793C21.5497 50.7489 22.9108 52.3444 24.7628 53.6758C24.8576 53.7432 24.958 53.7994 25.0584 53.8556L26.241 55.7937L27.3623 53.8499C27.4404 53.8106 27.5185 53.7657 27.591 53.7151C29.2142 52.5803 30.4917 51.041 31.4511 49.058C31.9866 47.9512 32.4217 46.7041 32.7564 45.3109C32.9461 44.5244 33.1023 43.6873 33.2306 42.8053C33.1804 42.766 33.1246 42.7323 33.0744 42.693C33.1358 42.6761 33.1915 42.6593 33.2529 42.648C33.2473 42.6986 33.2362 42.7492 33.2306 42.8053C33.4704 42.9851 33.727 43.1536 33.9725 43.3278L37.4868 48.6254L38.3179 55.7881C38.3179 55.8499 38.3347 55.9117 38.3514 55.9735C38.3514 55.9847 38.3514 56.0016 38.3514 56.0128L39.4447 59.9958C39.5228 60.4003 39.9189 60.6644 40.315 60.5801C40.7166 60.5014 40.9788 60.1082 40.8951 59.7037L39.8018 55.7207C39.8018 55.7207 39.7906 55.6814 39.785 55.6645L38.9427 48.3782C38.9427 48.3276 38.9316 48.2771 38.9204 48.2265C38.9092 48.1703 38.8925 48.1198 38.8702 48.0636L36.9847 45.221C38.4518 46.0356 40.0193 46.7884 41.6705 47.4569L42.1948 47.6704C43.6284 48.2602 45.2238 48.9175 46.8638 48.9175C47.1316 48.9175 47.3993 48.9007 47.6615 48.8613C48.8441 48.6928 49.8091 48.1029 50.3168 47.2322C50.8746 46.2771 50.8021 45.148 50.6738 44.2716V44.2603ZM22.7993 10.9355H28.9353C29.1808 10.9355 29.4095 10.9861 29.6326 11.0591C29.0971 11.4917 28.7289 12.3006 28.7289 13.2388C28.7289 13.9298 28.9242 14.5534 29.2366 15.0028C28.6955 14.8455 28.1265 14.7444 27.5296 14.7444H24.1994C23.5691 14.7444 22.9722 14.8511 22.4032 15.0309C22.7323 14.5758 22.9331 13.941 22.9331 13.2332C22.9331 12.3062 22.5761 11.5029 22.0518 11.0703C22.2861 10.9861 22.5371 10.9355 22.7993 10.9355ZM24.1994 16.2387H27.5296C28.4723 16.2387 29.3537 16.5196 30.0956 16.9971C29.9562 17.0645 29.8279 17.16 29.7051 17.2611C29.4987 17.4409 29.3314 17.6544 29.2198 17.9184C28.2157 20.3285 27.5854 23.4183 27.3009 27.2496C27.2674 27.7327 27.2395 28.2327 27.2117 28.7383C27.2061 28.89 27.1949 29.0361 27.1838 29.1934H24.1994C24.1994 29.0586 24.1827 28.9406 24.1771 28.8058C24.1548 28.3001 24.1269 27.7945 24.0878 27.3114C23.8089 23.4464 23.173 20.3341 22.1633 17.9128C22.0183 17.5701 21.7784 17.2892 21.4772 17.0926C22.247 16.5477 23.1842 16.2275 24.1938 16.2275L24.1994 16.2387ZM24.2496 30.6933H27.1447C27.1224 31.727 27.128 32.8112 27.1447 33.9348C26.1797 33.9685 25.2091 33.9517 24.244 33.8786C24.2663 32.7719 24.2663 31.7102 24.244 30.6933H24.2496ZM27.5966 37.3055C27.6914 37.4853 27.7974 37.6538 27.9257 37.8111C28.4946 38.5021 29.1194 39.1875 29.7776 39.8447C27.1112 40.2099 24.4002 40.165 21.745 39.7099C22.3586 39.092 22.9387 38.4571 23.4686 37.8111C23.6081 37.6369 23.7252 37.4459 23.8257 37.2493C25.0808 37.3504 26.3359 37.3673 27.591 37.3055H27.5966ZM19.6531 39.6369C19.1957 40.0526 18.7271 40.4571 18.2307 40.8503C17.8067 41.1874 17.3828 41.5245 16.9309 41.8447C16.9198 41.8559 16.903 41.8615 16.8919 41.8728C16.6241 42.0638 16.3508 42.2492 16.0775 42.4346C15.5922 42.7604 15.1013 43.0862 14.5825 43.3896C12.9258 44.3727 11.1072 45.2715 9.17159 46.0524L8.64166 46.2715C7.15227 46.8839 5.45648 47.5805 3.94478 47.367C3.22518 47.2659 2.62831 46.9232 2.36055 46.4569C2.03701 45.9064 2.10395 45.1086 2.1932 44.4738C2.38844 43.1593 2.76219 41.811 3.32001 40.4571C4.83172 36.7493 7.43118 33.5977 9.51745 31.2663C10.4155 30.2664 11.3638 29.2664 12.2731 28.2945C12.6859 27.8563 13.1043 27.4182 13.5226 26.9687C14.0637 26.3901 14.5992 25.8002 15.1347 25.2047C15.8376 24.4182 16.5293 23.6205 17.1875 22.7947C17.4441 22.4745 17.7007 22.143 17.9518 21.8116C18.6156 20.9296 19.2459 20.0195 19.8484 19.0813C19.9822 18.8735 20.1217 18.6656 20.25 18.4577C20.3337 18.3285 20.4564 18.3061 20.5233 18.3061C20.5345 18.3061 20.5456 18.3061 20.5512 18.3061C20.6182 18.3061 20.7465 18.3454 20.8078 18.4915C21.7505 20.7667 22.3586 23.8115 22.6263 27.5754C22.6598 28.0249 22.6877 28.4799 22.71 28.9518C22.71 28.9968 22.71 29.0473 22.71 29.0923C22.7323 29.5585 22.7491 30.0304 22.7602 30.5136C22.7825 31.536 22.7825 32.609 22.7658 33.7213C22.7546 34.4011 22.7379 35.0865 22.71 35.7999C22.6933 36.1932 22.5594 36.5696 22.3251 36.8561C22.2693 36.9235 22.208 36.9909 22.1522 37.0583C21.6111 37.7044 21.031 38.3392 20.4062 38.9515C20.2667 39.0863 20.1161 39.2156 19.9711 39.3504C19.8651 39.4459 19.7535 39.5414 19.6475 39.6369H19.6531ZM26.7487 52.468C26.4251 52.6927 25.9621 52.6871 25.6274 52.4455C24.4783 51.6197 23.3682 50.6309 22.4255 49.2658C24.8186 49.5692 27.234 49.586 29.627 49.3108C28.8517 50.6141 27.8978 51.6646 26.7487 52.468ZM31.1443 45.6367C27.6691 46.294 24.099 46.2547 20.6405 45.5131C20.3895 44.7042 20.1775 43.8053 20.0101 42.8166C23.8703 43.6312 27.842 43.6817 31.7133 42.957C31.5627 43.9177 31.3786 44.8165 31.1443 45.6423V45.6367ZM49.0449 46.4569C48.7716 46.9232 48.1803 47.2603 47.4607 47.367C45.9434 47.5805 44.2532 46.8839 42.7638 46.2715L42.2339 46.0524C40.2982 45.2715 38.4797 44.3727 36.823 43.3896C36.1982 43.0188 35.6013 42.6256 35.0212 42.2267L34.5638 41.8952C34.1845 41.6256 33.8051 41.3559 33.4481 41.0694C32.9684 40.693 32.511 40.311 32.0647 39.9178C31.9197 39.7886 31.7691 39.6594 31.6296 39.5301C31.4232 39.3391 31.2057 39.1481 31.0049 38.9571C30.4136 38.3785 29.8669 37.783 29.3537 37.1763C29.2644 37.0752 29.1696 36.9684 29.0859 36.8673C28.8517 36.5808 28.7122 36.2044 28.701 35.8112C28.6732 35.137 28.662 34.4854 28.6508 33.8449C28.6341 32.7214 28.6341 31.6315 28.6508 30.5978C28.662 30.0754 28.6787 29.5585 28.701 29.0585C28.701 29.0248 28.701 28.9968 28.7066 28.963C28.7289 28.4518 28.7624 27.9518 28.7959 27.4631C29.0692 23.7553 29.6717 20.7554 30.6088 18.5027C30.6702 18.3566 30.7985 18.3229 30.8654 18.3173C30.871 18.3173 30.8821 18.3173 30.8933 18.3173C30.9602 18.3173 31.0885 18.3398 31.1722 18.4802C31.5069 19.0195 31.8583 19.5476 32.2153 20.0701C32.723 20.8116 33.2529 21.5419 33.7996 22.2498C33.9446 22.4352 34.0841 22.6262 34.2291 22.8059C35.7687 24.7385 37.4868 26.553 39.1435 28.3058C40.0584 29.272 41.0011 30.272 41.8992 31.2776C43.991 33.609 46.5849 36.755 48.0966 40.4683C48.6489 41.8222 49.0282 43.1761 49.2234 44.4851C49.3183 45.1199 49.3796 45.912 49.0561 46.4681L49.0449 46.4569Z" fill="#001457"/>
<path d="M24.7069 8.63318C24.3388 8.63318 24.0152 8.35791 23.9706 7.97589C23.6973 5.7063 22.7601 3.94231 21.2707 2.86369C19.8427 1.83563 17.9573 1.50418 15.9491 1.93113C15.5475 2.0154 15.157 1.75698 15.0733 1.3525C14.9896 0.948013 15.2462 0.554766 15.6479 0.470499C18.0633 -0.0407219 20.3726 0.380614 22.141 1.65024C23.9818 2.97604 25.1253 5.09958 25.4489 7.79612C25.4991 8.20622 25.209 8.577 24.8018 8.62756C24.7739 8.62756 24.7404 8.63318 24.7125 8.63318H24.7069Z" fill="#001457"/>
<path d="M27.206 8.63235C27.1781 8.63235 27.1446 8.63235 27.1167 8.62673C26.7095 8.57617 26.4194 8.2054 26.4696 7.7953C26.7988 5.07628 27.959 2.93027 29.8333 1.582C31.6128 0.301138 33.9166 -0.131434 36.3097 0.379787C36.7113 0.464054 36.9679 0.862919 36.8842 1.26178C36.8006 1.66065 36.4045 1.92468 36.0084 1.84042C34.0226 1.41908 32.1371 1.75615 30.698 2.79545C29.1751 3.89092 28.2212 5.683 27.9479 7.97507C27.9032 8.35146 27.5797 8.63235 27.2115 8.63235H27.206Z" fill="#001457"/>
</svg>
