<svg width="59" height="60" viewBox="0 0 59 60" fill="none" xmlns="http://www.w3.org/2000/svg">
<path d="M29.265 59.2776C36.2217 57.1706 37.6263 39.0413 37.6263 28.7073C37.6263 28.7073 38.129 22.0885 34.7801 20.2793C34.3735 19.5347 34.7357 18.5073 33.7155 17.7181C33.2646 15.6558 31.0097 14.1816 29.3833 14.5017H29.1615C27.5351 14.1816 25.2803 15.6558 24.8293 17.7181C23.8017 18.4999 24.1714 19.5347 23.7648 20.2793C20.4158 22.0959 20.9185 28.7073 20.9185 28.7073C20.9185 39.0339 22.6484 57.7885 29.2798 59.2776H29.265Z" fill="white"/>
<path d="M34.7806 20.2793C34.374 19.5347 34.7362 18.5073 33.716 17.7181C33.265 15.6558 31.0102 14.1816 29.3838 14.5017H29.162C28.7702 14.4273 28.3488 14.4571 27.92 14.5688C29.2803 14.9261 30.6702 16.1546 31.0176 17.7255C32.0452 18.5073 31.6756 19.5422 32.0822 20.2867C32.4075 20.458 32.681 20.6888 32.9398 20.9493H35.2685C34.7214 21.1876 34.1152 21.3886 33.4573 21.5599C35.2759 24.1434 34.9358 28.7222 34.9358 28.7222C34.9358 38.3713 33.7086 54.8253 27.8757 58.6671C28.3192 58.9574 28.785 59.1808 29.2803 59.2925C36.237 57.1855 37.6416 39.0562 37.6416 28.7222C37.6416 28.7222 38.1443 22.1034 34.7954 20.2942L34.7806 20.2793Z" fill="#20AA4D"/>
<path d="M57.8387 0.00605036C57.1438 0.0953935 40.9461 2.33642 32.7549 14.8817C31.7494 14.0329 30.4705 13.5564 29.3098 13.75H29.2137C28.09 13.5564 26.8554 14.0031 25.8647 14.8072C17.6661 2.33642 1.53492 0.102839 0.839992 0.00605036C0.440779 -0.0460665 0.0637445 0.244299 0.00460185 0.653788C-0.0397551 1.06328 0.241173 1.43554 0.647778 1.48766C0.810421 1.50999 17.0599 3.76591 24.8297 15.924C24.534 16.3484 24.3048 16.81 24.1644 17.294C23.4621 17.9417 23.3512 18.6937 23.2698 19.2595C23.2403 19.4456 23.2181 19.6169 23.1737 19.7509C22.671 20.0636 22.257 20.4805 21.9096 20.9421L16.8233 19.468L15.7513 16.8919C15.5961 16.5122 15.1599 16.3335 14.7829 16.4899C14.4058 16.6462 14.2284 17.0855 14.3837 17.4652L15.7292 20.6964L21.1333 22.2674C20.3127 24.1138 20.1501 26.3176 20.1427 27.6056L17.3482 27.0249C17.3482 27.0249 17.3186 27.0249 17.3038 27.0249C17.0229 26.9579 16.7124 27.0621 16.535 27.3078L11.1678 34.7159L7.17565 37.1952C6.82819 37.4111 6.71729 37.8727 6.93908 38.2226C7.07954 38.4534 7.32351 38.5725 7.56747 38.5725C7.70054 38.5725 7.83361 38.5353 7.9519 38.4608L12.0253 35.922C12.1215 35.8624 12.1954 35.7805 12.2545 35.6838C12.2767 35.6614 12.3063 35.6465 12.3285 35.6242L17.2003 28.9011L20.2018 32.5046C20.2018 32.5046 20.2314 32.527 20.2462 32.5419C20.2979 33.8895 20.3793 35.4902 20.5123 37.2324H16.6607C16.4093 37.2324 16.1875 37.3589 16.0544 37.56C15.9583 37.6642 15.877 37.7982 15.8622 37.9471L14.2432 49.9936L10.3989 54.8181C10.1402 55.1382 10.1919 55.6073 10.5098 55.8679C10.6429 55.9796 10.8129 56.0317 10.9682 56.0317C11.1826 56.0317 11.397 55.9349 11.5448 55.7562L15.5222 50.7604C15.5222 50.7604 15.5443 50.7158 15.5517 50.6934C15.5739 50.6562 15.5961 50.619 15.6109 50.5743C15.6331 50.5296 15.6478 50.485 15.6552 50.4328C15.6552 50.4179 15.67 50.403 15.67 50.3882L17.1338 39.466L21.1481 43.3003C22.2275 50.9763 24.4601 58.9428 29.088 59.9851C29.1398 60 29.1915 60 29.2507 60C29.3246 60 29.3911 59.9926 29.465 59.9702C34.1003 58.5705 36.333 50.9763 37.3976 43.4194L41.5301 39.4734L42.9939 50.3956C42.9939 50.3956 43.0087 50.4254 43.0087 50.4403C43.0161 50.4924 43.0383 50.5371 43.0531 50.5817C43.0679 50.6264 43.09 50.6636 43.1122 50.7009C43.127 50.7232 43.127 50.7455 43.1418 50.7679L47.1191 55.7636C47.267 55.9498 47.4814 56.0391 47.6958 56.0391C47.8584 56.0391 48.0211 55.987 48.1541 55.8753C48.472 55.6147 48.5238 55.1531 48.265 54.8255L44.4207 50.001L42.8017 37.9546C42.7795 37.7982 42.7056 37.6716 42.6095 37.56C42.4764 37.3589 42.2546 37.2324 42.0033 37.2324H38.1442C38.1073 37.2324 38.0703 37.2473 38.0333 37.2547C38.1516 35.5944 38.2256 34.0384 38.2773 32.661C38.3512 32.6163 38.4178 32.5791 38.4769 32.5121L41.4784 28.9086L46.3503 35.6316C46.3503 35.6316 46.402 35.6689 46.4242 35.6912C46.4833 35.7806 46.5573 35.8624 46.6534 35.9295L50.7268 38.4683C50.8451 38.5427 50.9856 38.58 51.1113 38.58C51.3552 38.58 51.5992 38.4534 51.7397 38.23C51.954 37.8801 51.8505 37.4185 51.5031 37.2026L47.511 34.7233L42.1438 27.3153C41.9663 27.0621 41.6558 26.9654 41.3749 27.0324C41.3601 27.0324 41.3453 27.0324 41.3305 27.0324L38.3734 27.6429C38.366 26.3474 38.2034 24.1585 37.3976 22.3121L42.9496 20.7039L44.2877 17.4652C44.4429 17.0855 44.2655 16.6462 43.8885 16.4899C43.5114 16.3335 43.0752 16.5122 42.92 16.8919L41.8554 19.468L36.6509 20.9794C36.6509 20.9794 36.6435 20.9794 36.6361 20.9868C36.2812 20.5029 35.8598 20.0785 35.335 19.7509C35.2906 19.6169 35.2684 19.4456 35.2388 19.2595C35.1575 18.6937 35.0466 17.9417 34.3443 17.294C34.2186 16.8472 34.0116 16.4229 33.7455 16.0283C41.5154 3.77336 57.8609 1.50999 58.0309 1.48766C58.4376 1.43554 58.7185 1.06328 58.6667 0.653788C58.615 0.244299 58.238 -0.0460665 57.8387 0.0134956V0.00605036ZM38.366 29.1617L39.571 28.916L38.3512 30.3753C38.3512 29.936 38.3586 29.534 38.3586 29.1617H38.366ZM37.9446 38.6842C38.0186 38.7065 38.0925 38.7289 38.1738 38.7289H40.1847L37.7081 41.089C37.7968 40.2775 37.8781 39.4734 37.9446 38.6842ZM19.1299 28.9086L20.1723 29.1245C20.1723 29.4 20.1723 29.7499 20.187 30.1743L19.1373 28.9086H19.1299ZM18.5163 38.7289H20.5271C20.5715 38.7289 20.601 38.714 20.6454 38.7065C20.7119 39.4511 20.7859 40.203 20.8746 40.9773L18.5236 38.7289H18.5163ZM35.335 21.6867C36.8727 23.5256 36.9983 27.1887 36.8874 28.6927C36.8874 41.2379 34.884 56.4635 29.2433 58.4886C23.6765 56.8804 21.6508 39.868 21.6434 28.6405C21.5325 27.1813 21.6582 23.5256 23.2033 21.6867C24.8963 22.394 27.0476 22.7886 29.2802 22.7886C31.5129 22.7886 33.6494 22.4014 35.335 21.6941V21.6867ZM33.8046 19.468C33.8564 19.8105 33.9155 20.1902 34.1003 20.555C32.7031 21.024 31.0249 21.2846 29.2728 21.2846C27.5207 21.2846 25.8352 21.024 24.4305 20.5475C24.6153 20.1827 24.6745 19.803 24.7262 19.4605C24.8076 18.8947 24.8741 18.5894 25.2659 18.2842C25.4064 18.1799 25.5025 18.0236 25.5394 17.8524C25.8795 16.3112 27.4764 15.1721 28.6814 15.1721C28.7923 15.1721 28.9032 15.1795 29.0067 15.2018C29.051 15.2093 29.1028 15.2167 29.1472 15.2167H29.3763C29.4207 15.2167 29.4724 15.2167 29.5168 15.2018C30.7366 14.9636 32.6218 16.1623 32.984 17.8524C33.021 18.0236 33.1171 18.1799 33.2576 18.2842C33.6494 18.582 33.7159 18.8947 33.7972 19.4605L33.8046 19.468Z" fill="#001457"/>
</svg>
