<svg width="42" height="61" viewBox="0 0 42 61" fill="none" xmlns="http://www.w3.org/2000/svg">
<path d="M28.5014 15.2537C27.9737 14.7536 24.4474 13.3655 22.2124 12.5215H22.8332C22.8332 6.08155 19.6111 0.86084 15.6316 0.86084C11.652 0.86084 8.42991 6.0753 8.42991 12.5152H8.77757C6.54258 13.3655 3.01625 14.7473 2.48855 15.2475C1.93601 15.385 -0.40453 17.6046 1.15376 19.5053C2.05396 20.2369 3.31425 20.9621 4.77941 21.3748H4.40071C2.3085 25.9765 1.67526 31.3223 1.78701 36.5305C1.87392 40.5945 2.43267 44.7523 4.18342 48.2536C5.71066 51.311 8.13191 53.7432 10.9443 55.0624C14.7748 56.8506 18.7854 56.3379 22.349 53.812C25.0744 51.88 27.2225 48.8476 28.3338 45.3525C29.2836 42.3702 29.4823 39.1315 29.5009 35.9428C29.5258 30.8909 29.0539 25.6514 26.8562 21.2998H26.4464C27.8123 20.8809 28.9856 20.1931 29.83 19.5053C31.3945 17.6109 29.0477 15.385 28.4952 15.2475L28.5014 15.2537ZM9.88886 21.2935V21.3623H9.68398C9.75228 21.3435 9.82057 21.3185 9.88886 21.2935ZM20.7596 21.3248V21.1685C20.9024 21.2247 21.0452 21.2748 21.188 21.3185H20.7596V21.3248Z" fill="white"/>
<path d="M15.6319 0.855225C15.2345 0.855225 14.8434 0.924 14.4585 1.02404C17.8793 1.93063 20.4868 6.72618 20.4868 12.5159H22.8335C22.8335 6.07593 19.6114 0.855225 15.6319 0.855225Z" fill="#20AA4D"/>
<path d="M28.5014 15.2554C27.7191 14.5176 20.3685 11.8291 20.3685 11.8291L20.1698 12.2543C22.38 13.1046 25.3413 14.2925 25.8194 14.7489C26.3719 14.8865 28.7124 17.1061 27.1542 19.0068C25.7511 20.151 23.454 21.2764 20.89 21.2264C24.4784 22.5519 27.955 21.0451 29.8299 19.5195C31.3944 17.625 29.0477 15.3992 28.4952 15.2616L28.5014 15.2554Z" fill="#20AA4D"/>
<path d="M26.8562 21.3069L22.8457 21.3194C25.031 25.671 25.5028 30.9042 25.4842 35.9499C25.4718 39.1323 25.2669 42.371 24.317 45.3597C23.2057 48.8547 21.0577 51.8871 18.3322 53.8191C16.8112 54.8945 15.2094 55.6073 13.5704 55.9261C16.5691 56.5139 19.5925 55.7698 22.349 53.8191C25.0744 51.8871 27.2225 48.8547 28.3338 45.3597C29.2837 42.3773 29.4824 39.1386 29.501 35.9499C29.5258 30.898 29.054 25.6585 26.8562 21.3069Z" fill="#20AA4D"/>
<path d="M40.7503 37.7127C40.6883 37.3438 40.6386 37.025 40.5951 36.7311C39.7632 32.4482 37.3978 28.0028 35.9886 25.3456C35.4484 24.3264 34.9766 23.4511 34.8586 23.0447C34.6041 22.3632 34.244 19.9498 35.8582 17.874C36.0941 17.5739 36.0382 17.1425 35.7402 16.9049C35.4422 16.6673 35.0138 16.7236 34.7779 17.0237C32.7602 19.6059 33.2258 22.5945 33.5549 23.4824C33.6977 23.9763 34.1261 24.7829 34.7717 26.0021C36.15 28.5905 38.4533 32.9172 39.2355 36.9562C39.2665 37.2188 39.3224 37.5502 39.3907 37.9441C40.0302 41.7893 41.7312 51.9993 31.0529 57.5202C23.3236 61.3716 18.2638 57.9703 16.7366 56.6761C18.7791 56.4573 20.7968 55.6757 22.6965 54.3315C25.5462 52.312 27.7563 49.192 28.9111 45.5532C29.9417 42.3207 30.0907 38.8882 30.1031 35.9558C30.1217 32.0293 29.8734 26.3272 27.6322 21.5316C28.6503 21.1002 29.5381 20.55 30.2086 19.9998L30.2955 19.9123C30.9598 19.1057 31.1336 18.1491 30.8108 17.1488C30.4321 15.9796 29.4202 14.9792 28.7993 14.7103C28.0667 14.1726 25.5772 13.1535 23.4415 12.3282C23.4229 10.6213 23.187 9.0082 22.7648 7.53889L26.6823 6.90741C26.6823 6.90741 26.6885 6.90741 26.6947 6.90741L30.2334 6.33844C30.5749 6.28217 30.8046 5.9633 30.7487 5.61942C30.6929 5.27555 30.3762 5.04421 30.0348 5.10048L25.4282 5.83826C25.4282 5.83826 25.422 5.83826 25.4158 5.83826L22.4606 6.31343C22.4296 6.31343 22.4048 6.33844 22.3737 6.3447C22.2682 6.06334 22.1564 5.78199 22.0385 5.51313L24.4597 4.59404H24.4659L30.3514 2.36195C30.6742 2.24316 30.8356 1.88052 30.7115 1.5554C30.5935 1.23028 30.2334 1.06772 29.9106 1.19276L23.7582 3.51864H23.752L21.4673 4.38771C21.3307 4.15012 21.1941 3.91253 21.0451 3.6937L24.5156 1.37408C24.8012 1.18026 24.8819 0.792612 24.6894 0.505004C24.497 0.217396 24.112 0.142368 23.8265 0.329938L20.2939 2.69333C19.0088 1.15525 17.3884 0.229901 15.6377 0.229901C13.8869 0.229901 12.3597 1.09898 11.0746 2.55577L7.74071 0.336191C7.45513 0.142368 7.07021 0.223648 6.87775 0.511256C6.68529 0.798864 6.766 1.18651 7.05158 1.38033L10.2985 3.5499C10.1371 3.78749 9.98191 4.03758 9.83291 4.29393L7.80279 3.52489L1.66277 1.19276C1.33993 1.07397 0.986059 1.23653 0.861893 1.5554C0.737726 1.87427 0.905351 2.2369 1.22198 2.36195L7.11367 4.59404L9.26175 5.40684C9.13758 5.6882 9.01962 5.97581 8.90166 6.26967L5.61126 5.73822C5.61126 5.73822 5.57401 5.71946 5.55538 5.71946L1.5386 5.08797C1.19714 5.0317 0.880518 5.26304 0.824643 5.60692C0.768768 5.9508 0.998476 6.26967 1.33993 6.32594L4.84142 6.87615C4.84142 6.87615 4.87247 6.8949 4.89109 6.8949L8.49812 7.47637C8.08217 8.92692 7.84004 10.5275 7.809 12.2094C5.61746 13.0535 2.93547 14.1351 2.17185 14.6978C1.55102 14.9729 0.53906 15.9671 0.160353 17.1362C-0.168688 18.1429 0.0113532 19.0995 0.675643 19.8998L0.76256 19.9873C1.49514 20.5875 2.47606 21.1878 3.61839 21.6379C1.86764 25.7332 1.03573 30.7414 1.15989 36.5373C1.26543 41.5079 2.07251 45.4344 3.62459 48.5293C5.22013 51.7242 7.72829 54.2439 10.6772 55.6194C12.1176 56.2947 13.6014 56.6448 15.0851 56.7074C15.0851 56.8699 15.141 57.0325 15.2652 57.1638C15.3273 57.2325 16.8731 58.8707 19.6731 59.8835C20.8465 60.3087 22.3551 60.6526 24.1555 60.6526C26.285 60.6526 28.8179 60.1649 31.6738 58.7394C43.2523 52.7559 41.4332 41.8205 40.7441 37.7002L40.7503 37.7127ZM4.74209 47.9791C3.27693 45.0467 2.5133 41.3016 2.41397 36.5185C2.28981 30.8476 3.1031 25.9771 4.81659 22.0256C5.59263 22.2319 6.41213 22.3632 7.27508 22.3632C9.51008 22.3632 11.9562 21.5316 14.247 19.1558C14.4829 18.9057 14.4829 18.5118 14.2346 18.2742C13.9863 18.0303 13.5952 18.0366 13.3592 18.2867C8.97616 22.8321 3.94122 20.9314 1.60689 19.062C1.28406 18.6431 1.18473 18.1866 1.3151 17.674C1.55722 16.6986 2.46985 15.9295 2.64989 15.8545L2.8113 15.8108L2.92926 15.7045C3.38247 15.2856 7.31233 13.7037 10.8511 12.4095C11.1739 12.2907 11.3415 11.9343 11.2236 11.6092C11.1056 11.2841 10.7517 11.1152 10.4289 11.234C10.0999 11.3528 9.63424 11.5279 9.08791 11.728C9.33004 6.00707 12.1734 1.47412 15.6439 1.47412C19.1143 1.47412 21.995 6.06334 22.2061 11.8343C21.5418 11.5842 20.9706 11.3716 20.5919 11.234C20.2691 11.1152 19.9152 11.2841 19.7973 11.6092C19.6793 11.9343 19.8469 12.2907 20.1698 12.4095C23.7023 13.6975 27.6322 15.2856 28.0916 15.7045L28.1847 15.8108L28.3399 15.8483C28.5448 15.9358 29.4574 16.6986 29.6995 17.674C29.8299 18.1866 29.7306 18.6431 29.4077 19.062C27.0796 20.9314 22.0385 22.8259 17.6554 18.2867C17.4133 18.0366 17.0221 18.0303 16.78 18.2742C16.5317 18.5118 16.5255 18.9119 16.7676 19.1558C19.0585 21.5316 21.5045 22.3632 23.7395 22.3632C24.708 22.3632 25.6269 22.2006 26.4898 21.9506C28.6689 26.5398 28.9111 32.1106 28.8924 35.9433C28.88 38.7756 28.7372 42.0894 27.7563 45.1593C26.6823 48.5418 24.6397 51.4366 22.0074 53.2998C18.537 55.757 14.812 56.1697 11.2236 54.494C8.52916 53.231 6.23209 50.9177 4.75451 47.9728L4.74209 47.9791Z" fill="#001457"/>
</svg>
