<svg width="47" height="61" viewBox="0 0 47 61" fill="none" xmlns="http://www.w3.org/2000/svg">
<path d="M24.6335 19.7628V14.1668C24.6335 13.5732 25.388 13.0903 26.3154 13.0903C27.2428 13.0903 27.9973 13.5732 27.9973 14.1668V20.5147" fill="white"/>
<path d="M18.55 19.7628V14.1668C18.55 13.5732 19.3045 13.0903 20.232 13.0903C21.1594 13.0903 21.9139 13.5732 21.9139 14.1668V20.5147" fill="white"/>
<path d="M25.4585 34.2556L25.3642 37.7383C25.3642 38.1419 25.6393 38.4902 26.0244 38.5852C26.048 38.5852 28.2093 39.1472 30.1113 40.7777C32.5791 42.9068 33.483 45.8196 32.7914 49.4527C32.0919 53.1253 30.3078 55.6977 27.4941 57.0907C25.3642 58.1514 23.3915 58.1197 23.3758 58.1197C23.3601 58.1197 23.3444 58.1197 23.3287 58.1197C23.3051 58.1197 21.3402 58.1514 19.2025 57.0907C16.3888 55.6898 14.6047 53.1253 13.9053 49.4527C13.2136 45.8196 14.1096 42.9068 16.5853 40.7777C18.4873 39.1392 20.6486 38.5852 20.6722 38.5852C21.0573 38.4902 21.3324 38.1419 21.3324 37.7383V34.8572L25.4585 34.2556Z" fill="white"/>
<path d="M22.5977 33.0044H24.091C24.9948 33.0044 25.5214 33.4081 25.9379 33.7405C26.4331 34.1204 26.8968 34.4845 28.3744 34.35C30.4728 34.16 31.8561 33.5268 31.8561 26.7119C31.8561 20.8547 24.2167 20.6885 23.3444 20.6885C22.472 20.6885 14.8326 20.8547 14.8326 26.7119C14.8326 33.5347 16.208 34.1679 18.3143 34.35C19.7919 34.4845 20.2556 34.1204 20.7508 33.7405C21.1752 33.416 21.6939 33.0044 22.5977 33.0044Z" fill="white"/>
<path d="M30.1038 40.7779C28.2018 39.1395 26.0405 38.5854 26.0169 38.5854C25.6318 38.4905 25.3567 38.1422 25.3567 37.7385L25.4511 34.2559L22.4488 34.6912V37.3507C22.4488 37.7543 22.7239 38.1026 23.109 38.1976C23.1325 38.1976 25.2939 38.7596 27.1958 40.3901C29.6637 42.5192 30.5675 45.432 29.8759 49.0651C29.1764 52.7377 27.3923 55.3101 24.5787 56.7031C22.9832 57.4947 21.4821 57.6767 20.814 57.7163C22.2287 58.1279 23.2976 58.112 23.3133 58.112C23.329 58.112 23.3447 58.112 23.3605 58.112C23.3762 58.112 25.3489 58.1437 27.4788 57.0831C30.2924 55.6821 32.0765 53.1176 32.776 49.445C33.4676 45.8119 32.5717 42.8992 30.096 40.77L30.1038 40.7779Z" fill="#20AA4D"/>
<path d="M23.3448 20.6804C23.2033 20.6804 22.8889 20.6804 22.4567 20.72C25.0031 21.1316 28.7992 22.4297 28.7992 26.5534C28.7992 32.1811 27.8561 33.59 26.3549 34.0174C26.7636 34.2628 27.298 34.4369 28.3826 34.3419C30.4811 34.152 31.8643 33.5187 31.8643 26.7038C31.8643 20.8466 24.225 20.6804 23.3526 20.6804H23.3448Z" fill="#20AA4D"/>
<path d="M26.3078 13.0979C26.0327 13.0979 25.7733 13.1454 25.5454 13.2245C26.0877 13.4066 26.4571 13.7628 26.4571 14.1744V20.1819L27.9897 20.5223V14.1744C27.9897 13.5807 27.2352 13.0979 26.3078 13.0979Z" fill="#20AA4D"/>
<path d="M20.2323 13.0979C19.9572 13.0979 19.6978 13.1454 19.4699 13.2245C20.0122 13.4066 20.3816 13.7628 20.3816 14.1744V20.1819L21.9142 20.5223V14.1744C21.9142 13.5807 21.1597 13.0979 20.2323 13.0979Z" fill="#20AA4D"/>
<path d="M46.3176 43.453L42.4351 41.403L40.6824 37.6829C40.6824 37.6829 40.6589 37.6512 40.651 37.6354C40.6274 37.5642 40.6196 37.4929 40.5803 37.4296L37.2557 31.7861C37.2557 31.7861 37.24 31.7703 37.2322 31.7624C37.2086 31.7307 37.1772 31.707 37.1536 31.6753C37.1064 31.6278 37.075 31.5724 37.02 31.5329C36.9257 31.4616 36.8156 31.4062 36.6899 31.3745L33.3811 30.5672C33.4754 29.8311 33.5383 29.0079 33.5697 28.066C33.6169 28.0106 33.664 27.9552 33.6954 27.8919L36.7999 22.0901L42.1207 16.4783C42.1757 16.415 42.2072 16.3437 42.2465 16.2804C42.2543 16.2646 42.27 16.2567 42.2858 16.2408L44.2427 12.7661C44.2427 12.7661 44.2585 12.7107 44.2663 12.6869C44.3213 12.6157 44.3685 12.5286 44.3999 12.4416L45.2802 9.76626C45.4295 9.30719 45.1859 8.81645 44.73 8.66606C44.2742 8.51567 43.7869 8.76104 43.6376 9.22012L42.7652 11.8796C42.7652 11.8796 42.7416 11.8954 42.7416 11.9113L40.7925 15.3623L35.5817 20.8554C35.5817 20.8554 35.5503 20.887 35.5345 20.9108L35.4795 20.9662C35.4795 20.9662 35.4638 20.9899 35.4559 21.0057C35.4245 21.0453 35.3774 21.077 35.3538 21.1324L33.3575 24.8604C33.0903 23.8077 32.603 22.8737 31.8799 22.0822C31.9035 22.003 31.9271 21.9318 31.9271 21.8447L31.9664 15.0298L35.0787 10.162C35.1416 10.067 35.1887 9.95623 35.2123 9.82959L35.9904 4.35232C35.9904 4.35232 35.9904 4.28108 35.9904 4.24942C35.9904 4.17819 35.9904 4.11487 35.9904 4.04363C35.9904 4.01197 35.9747 3.98822 35.9668 3.95656C35.9511 3.90116 35.9511 3.84575 35.9197 3.79035L34.3714 0.711365C34.1513 0.283948 33.6326 0.109815 33.2082 0.331439C32.7838 0.553062 32.6109 1.07546 32.8309 1.50288L34.2613 4.33649L33.5461 9.36259L30.3945 14.2937C30.3081 14.4283 30.2766 14.5866 30.2688 14.737C30.2688 14.7686 30.2452 14.8003 30.2452 14.8319L30.2059 20.7129C29.7972 20.4596 29.3571 20.2301 28.8776 20.0243C28.8462 20.0084 28.8148 20.0005 28.7912 19.9926V14.1908C28.7912 13.146 27.7066 12.3228 26.3233 12.3228C24.9401 12.3228 23.8555 13.1381 23.8555 14.1908V18.9715C23.6197 18.9636 23.4547 18.9557 23.3525 18.9557C23.2425 18.9557 23.0067 18.9557 22.7002 18.9715V14.1829C22.7002 13.1381 21.6156 12.3149 20.2323 12.3149C18.8491 12.3149 17.7645 13.1302 17.7645 14.1829V20.048C17.3322 20.2301 16.9392 20.4358 16.5699 20.6575L16.5306 14.824C16.5306 14.824 16.5148 14.7607 16.507 14.729C16.507 14.5787 16.4755 14.4204 16.3812 14.2858L13.2296 9.35468L12.5144 4.32858L13.9448 1.49496C14.1649 1.06755 13.992 0.537232 13.5676 0.323524C13.1432 0.1019 12.6166 0.276033 12.4044 0.703449L10.8561 3.78243C10.8325 3.83784 10.8246 3.89324 10.8089 3.94865C10.8011 3.98031 10.7932 4.00406 10.7854 4.03572C10.7775 4.10695 10.7696 4.17027 10.7854 4.24151C10.7854 4.28108 10.7775 4.31275 10.7854 4.34441L11.5634 9.82167C11.587 9.94831 11.6342 10.0512 11.697 10.1541L14.8094 15.0219L14.8487 21.8368C14.8487 21.8922 14.8722 21.9476 14.8801 22.003C14.1492 22.7866 13.6383 23.7127 13.3632 24.7575L11.422 21.1245C11.3984 21.077 11.3512 21.0453 11.3198 20.9978C11.3119 20.9899 11.3041 20.9741 11.2962 20.9582L11.2412 20.9028C11.2412 20.9028 11.2098 20.8633 11.194 20.8474L5.98327 15.3543L4.03414 11.9033C4.03414 11.9033 4.01842 11.8875 4.01057 11.8717L3.13817 9.21221C2.98885 8.75313 2.4937 8.50776 2.04572 8.65815C1.58988 8.80853 1.34624 9.29927 1.49556 9.75835L2.37581 12.4337C2.40725 12.5286 2.45441 12.6078 2.50942 12.679C2.51728 12.7028 2.52514 12.7344 2.533 12.7582L4.48999 16.2329C4.48999 16.2329 4.51357 16.2567 4.52928 16.2725C4.56858 16.3437 4.60002 16.415 4.65503 16.4704L9.97584 22.0822L13.0803 27.884C13.0803 27.884 13.1117 27.9236 13.1274 27.9473C13.1589 28.9446 13.2218 29.8074 13.3239 30.5751L10.0859 31.3666C9.96012 31.3983 9.85009 31.4537 9.75577 31.5249C9.70076 31.5645 9.66146 31.6199 9.62216 31.6674C9.59859 31.6991 9.55929 31.7228 9.54357 31.7545C9.54357 31.7624 9.52785 31.7703 9.51999 31.7782L6.19547 37.4217C6.15618 37.485 6.14832 37.5563 6.12474 37.6275C6.11688 37.6433 6.10116 37.6592 6.0933 37.675L4.34066 41.3951L0.458125 43.4451C0.0337185 43.6746 -0.123469 44.205 0.104453 44.6245C0.261641 44.9173 0.560297 45.0835 0.866813 45.0835C1.00828 45.0835 1.14975 45.0519 1.2755 44.9806L5.3781 42.8198C5.3781 42.8198 5.43311 42.7723 5.46455 42.7486C5.60602 42.6615 5.72391 42.5349 5.8025 42.3766L7.66518 38.419C7.66518 38.419 7.6809 38.3557 7.68876 38.3161L10.8325 32.9734L13.6619 32.2848C13.8112 32.8309 13.9998 33.3138 14.2199 33.7253L8.73405 41.0468C8.54543 41.1893 8.41968 41.403 8.3961 41.6563L7.38224 51.6373C7.38224 51.6848 7.3901 51.7322 7.39796 51.7797C7.39796 51.8114 7.37438 51.8431 7.37438 51.8826V59.774C7.37438 60.2568 7.75949 60.6447 8.23891 60.6447C8.71834 60.6447 9.10345 60.2568 9.10345 59.774V51.8826C9.10345 51.8826 9.09559 51.851 9.09559 51.8272C9.09559 51.8193 9.10345 51.8035 9.10345 51.7956L10.0859 42.1391L15.3674 35.0947C16.2869 35.807 17.3401 36.0049 18.1653 36.0761C18.7233 36.1236 19.1949 36.1157 19.5957 36.0682V37.0734C18.6998 37.3821 17.0493 38.0787 15.5088 39.3847C13.434 41.1497 11.1705 44.3791 12.2 49.7614C13.2139 55.0803 16.1926 57.5499 18.5111 58.6738C20.9082 59.8452 23.0774 59.8452 23.3446 59.8452H23.3997C23.8319 59.8452 25.9068 59.7819 28.1782 58.6738C30.4967 57.5419 33.4675 55.0803 34.4892 49.7614C35.5188 44.3791 33.2553 41.1497 31.1804 39.3847C29.64 38.0707 27.9817 37.3821 27.0936 37.0734V36.0682C27.3136 36.092 27.5416 36.1157 27.8088 36.1157C28.0288 36.1157 28.2725 36.1078 28.524 36.084C29.3571 36.0128 30.4417 35.7991 31.3691 35.063L36.682 42.147L37.6644 51.8035C37.6644 51.8035 37.6644 51.8272 37.6723 51.8351C37.6723 51.851 37.6644 51.8668 37.6644 51.8905V59.7819C37.6644 60.2647 38.0495 60.6526 38.529 60.6526C39.0084 60.6526 39.3935 60.2647 39.3935 59.7819V51.8905C39.3935 51.8905 39.3778 51.8193 39.3699 51.7876C39.3699 51.7402 39.3935 51.6927 39.3856 51.6452L38.3718 41.6642C38.3482 41.4109 38.2146 41.1972 38.0338 41.0547L32.5008 33.6778C32.713 33.2742 32.8938 32.8072 33.0353 32.269L35.9275 32.9813L39.0713 38.3161C39.0791 38.3557 39.0791 38.3873 39.0948 38.419L40.9575 42.3766C41.0361 42.5349 41.154 42.6615 41.2955 42.7486C41.3269 42.7723 41.3426 42.804 41.3819 42.8198L45.4845 44.9806C45.6181 45.0519 45.7596 45.0835 45.8932 45.0835C46.1997 45.0835 46.4984 44.9173 46.6556 44.6245C46.8835 44.197 46.7263 43.6667 46.3019 43.4451L46.3176 43.453ZM25.4117 14.1987C25.451 14.1117 25.7732 13.89 26.3076 13.89C26.8421 13.89 27.1643 14.1117 27.2036 14.175V19.4544C26.567 19.2882 25.9618 19.1773 25.4195 19.0982V14.1987H25.4117ZM20.2245 13.89C20.7589 13.89 21.0811 14.1117 21.1204 14.175V19.1219C20.5703 19.2011 19.9651 19.3198 19.3364 19.4939V14.1987C19.3678 14.1117 19.6979 13.89 20.2323 13.89H20.2245ZM26.0168 38.5773C26.0168 38.5773 28.2017 39.1393 30.1037 40.7698C32.5716 42.899 33.4754 45.8117 32.7838 49.4448C32.0843 53.1174 30.3002 55.6898 27.4865 57.0829C25.3566 58.1435 23.3839 58.1118 23.3682 58.1118C23.3525 58.1118 23.3368 58.1118 23.3211 58.1118C23.2975 58.1118 21.3326 58.1435 19.1949 57.0829C16.3812 55.6819 14.5972 53.1174 13.8977 49.4448C13.206 45.8117 14.102 42.899 16.5777 40.7698C18.4797 39.1314 20.641 38.5773 20.6646 38.5773C21.0497 38.4823 21.3248 38.1341 21.3248 37.7304V35.4667C21.5055 35.3479 21.6627 35.2292 21.8042 35.1184C22.1579 34.8414 22.2993 34.7464 22.598 34.7464H24.0913C24.3899 34.7464 24.5236 34.8414 24.8851 35.1184C25.0266 35.2292 25.1837 35.3479 25.3645 35.4667V37.7225C25.3645 38.1261 25.6396 38.4744 26.0247 38.5694L26.0168 38.5773ZM28.3668 34.3506C26.8892 34.4773 26.4255 34.1211 25.9304 33.7412C25.506 33.4166 24.9873 33.0051 24.0834 33.0051H22.5901C21.6863 33.0051 21.1597 33.4087 20.7432 33.7412C20.248 34.1211 19.7843 34.4852 18.3068 34.3506C16.2083 34.1607 14.8251 33.5275 14.8251 26.7125C14.8251 20.8554 22.4644 20.6891 23.3368 20.6891C24.2092 20.6891 31.8485 20.8554 31.8485 26.7125C31.8485 33.5354 30.4731 34.1686 28.3668 34.3506Z" fill="#001457"/>
</svg>
