<svg width="67" height="61" viewBox="0 0 67 61" fill="none" xmlns="http://www.w3.org/2000/svg">
<path d="M31.8559 14.2874C31.8559 14.2874 31.8967 14.3593 31.9069 14.3901C32.0802 14.811 32.488 15.0883 32.9366 15.0883C33.3852 15.0883 33.793 14.8213 33.9664 14.4003C33.9868 14.3593 34.0071 14.3079 34.0377 14.2668C34.4354 14.9753 34.9043 16.7106 35.0165 17.9324C34.9553 17.9119 34.884 17.8913 34.8228 17.8811C34.6291 17.84 34.4354 17.8092 34.2416 17.7784C34.1397 17.7681 34.0479 17.7373 33.946 17.7271C33.6503 17.6963 33.3444 17.6757 33.0284 17.6757C32.7123 17.6757 32.4167 17.6963 32.1108 17.7271C32.0089 17.7373 31.9171 17.7579 31.8151 17.7784C31.6214 17.8092 31.4175 17.8297 31.234 17.8811C31.1626 17.9016 31.0913 17.9221 31.0199 17.9427C31.0811 16.7208 31.4685 15.0267 31.8355 14.2976L31.8559 14.2874Z" fill="white"/>
<path d="M38.1564 25.8172C38.1564 30.181 34.955 30.8279 33.0485 30.8279C31.142 30.8279 27.9406 30.181 27.9406 25.8172C27.9406 24.6364 28.1751 23.3735 28.6237 22.1516C29.4801 21.1146 30.4793 20.4369 31.5906 20.1289C31.611 20.1289 31.6211 20.1186 31.6415 20.1186C31.8353 20.0673 32.0392 20.0262 32.2431 20.0057C32.2737 20.0057 32.3042 19.9954 32.345 19.9852C32.5795 19.9544 32.814 19.9441 33.0485 19.9441C33.283 19.9441 33.5277 19.9646 33.752 19.9852C33.7826 19.9852 33.8234 19.9954 33.8539 20.0057C34.0578 20.0365 34.2618 20.0673 34.4555 20.1186C34.4759 20.1186 34.4861 20.1186 34.5064 20.1289C35.6279 20.4369 36.6169 21.1043 37.4733 22.1516C37.9219 23.3735 38.1564 24.6364 38.1564 25.8172Z" fill="white"/>
<path d="M40.3484 44.3718C39.1759 45.758 37.0451 46.4254 33.8335 46.4254H32.2431C29.0315 46.4254 26.9007 45.7477 25.7282 44.3718C23.7299 42.0103 24.2805 37.3487 25.2082 31.4961C25.4121 30.2229 25.6568 29.073 25.9321 28.0051C26.7172 31.1881 29.2864 33.0979 33.0383 33.0979C36.7902 33.0979 39.3594 31.1984 40.1445 28.0051C40.4198 29.0627 40.6645 30.2229 40.8684 31.4961C41.7961 37.3487 42.3467 42.0103 40.3484 44.3718Z" fill="white"/>
<path d="M34.0571 14.2668C34.0571 14.2668 34.0061 14.3593 33.9857 14.4003C33.8532 14.7289 33.5677 14.9548 33.2415 15.0472C33.5167 15.8275 33.7614 16.8646 33.8634 17.7271C33.894 17.7271 33.9347 17.7271 33.9653 17.7271C34.0673 17.7373 34.159 17.7579 34.261 17.7784C34.4547 17.8092 34.6586 17.8297 34.8421 17.8811C34.9033 17.8913 34.9747 17.9221 35.0358 17.9324C34.9237 16.7106 34.4547 14.9753 34.0571 14.2668Z" fill="#20AA4D"/>
<path d="M40.8777 31.4961C40.6737 30.2229 40.4291 29.073 40.1538 28.0051C39.7562 29.6377 38.8794 30.9212 37.6151 31.8042C38.5123 37.513 39.0119 42.0513 37.0442 44.3718C35.9839 45.6245 34.1181 46.2919 31.3857 46.4048C31.6712 46.4151 31.9465 46.4254 32.2422 46.4254H33.8326C37.0442 46.4254 39.175 45.7477 40.3475 44.3718C42.3458 42.0103 41.7952 37.3487 40.8675 31.4961H40.8777Z" fill="#20AA4D"/>
<path d="M34.3731 21.1454C34.6688 21.3816 34.9441 21.6588 35.1684 21.9771C35.9025 23.0347 36.0452 24.5543 36.0452 25.8172C36.0452 29.4417 33.8328 30.4993 31.9976 30.756C32.3749 30.8073 32.7317 30.8279 33.0579 30.8279C34.9645 30.8279 38.1658 30.181 38.1658 25.8172C38.1658 24.6364 37.9313 23.3735 37.4827 22.1516C36.6263 21.1146 35.6272 20.4369 34.5159 20.1289C34.4955 20.1289 34.4853 20.1186 34.4649 20.1186C34.2712 20.0673 34.0673 20.0262 33.8634 20.0057C33.8328 20.0057 33.8022 19.9954 33.7614 19.9852C33.5269 19.9544 33.2924 19.9441 33.0579 19.9441C32.8234 19.9441 32.5788 19.9646 32.3545 19.9852C32.3239 19.9852 32.2831 19.9954 32.2525 20.0057C32.1607 20.016 32.0792 20.0365 31.9874 20.057C32.854 20.2316 33.6901 20.6012 34.3833 21.1557L34.3731 21.1454Z" fill="#20AA4D"/>
<path d="M64.715 37.893L58.6895 38.8992L53.4287 35.7778C53.4287 35.7778 53.337 35.747 53.286 35.7265C53.2248 35.6854 53.1738 35.6238 53.1025 35.593L47.2299 32.8413C47.0974 32.7489 46.9445 32.677 46.7711 32.6462L43.2537 32.1225C43.2027 31.794 43.1518 31.4654 43.1008 31.1266C42.8969 29.8431 42.6522 28.6418 42.3565 27.5329L44.885 25.849L50.9207 26.7217H50.9512C50.9512 26.7217 51.043 26.732 51.094 26.732C51.1552 26.732 51.2163 26.7115 51.2775 26.7012C51.3183 26.7012 51.3489 26.7012 51.3896 26.7012L57.67 24.9146C57.721 24.9043 57.772 24.8838 57.8229 24.8633C58.0574 24.7606 58.2409 24.5655 58.3633 24.3499C58.3633 24.3396 58.3837 24.3294 58.3837 24.3191L61.3607 18.4768C61.3607 18.4768 61.4117 18.3741 61.4219 18.3228C61.6054 17.7991 61.3811 17.2138 60.8714 16.9469C60.3208 16.6594 59.6377 16.875 59.3522 17.4295L56.5893 22.8611L51.0124 24.4423L44.8034 23.549C44.7117 23.5387 44.6301 23.549 44.5383 23.5593C44.4874 23.5593 44.4364 23.5593 44.3854 23.5593C44.3242 23.5695 44.2733 23.6004 44.2121 23.6312C44.1407 23.662 44.0592 23.6722 43.998 23.7236L41.6734 25.274C41.1841 23.8981 40.6029 22.6968 39.9504 21.6906L41.5409 17.2446C41.5409 17.2446 41.5409 17.2138 41.5409 17.1933L48.6063 8.90727C48.6573 8.84567 48.6777 8.78406 48.7083 8.71218L48.7286 8.68138C48.7796 8.5787 48.8204 8.47603 48.8408 8.36308C48.851 8.31174 48.851 8.25014 48.8612 8.1988C48.8612 8.13719 48.8612 8.07559 48.851 8.00371C48.8408 7.90104 48.8102 7.79836 48.7694 7.69568C48.7694 7.67515 48.7592 7.66488 48.749 7.64434C48.7185 7.58274 48.6981 7.51086 48.6573 7.44926L43.5188 0.621238C43.1416 0.118121 42.4381 0.0257115 41.9385 0.395349C41.4389 0.775254 41.3472 1.48372 41.7142 1.97657L46.3021 8.11666L39.6955 15.8688C39.5732 16.0228 39.5018 16.1973 39.4712 16.3719C39.4508 16.413 39.4203 16.4438 39.3999 16.4848L38.2478 19.6986C38.156 19.6062 38.0643 19.5138 37.9623 19.4317C37.8298 19.3187 37.6768 19.216 37.5443 19.1134C37.4525 19.0415 37.3608 18.9696 37.269 18.908C37.4016 17.0496 36.535 12.7166 34.8833 11.9978C34.3735 11.772 33.8434 11.7617 33.3438 11.967C33.2011 12.0287 33.0583 12.1005 32.936 12.1827C32.8136 12.1005 32.6811 12.0287 32.5282 11.967C32.0286 11.7617 31.4984 11.772 30.9887 11.9978C30.693 12.1313 29.7856 12.5215 29.1331 15.3965C28.8986 16.454 28.6947 17.871 28.7967 18.908C28.7049 18.9696 28.6131 19.0518 28.5214 19.1134C28.3786 19.216 28.2359 19.3187 28.1034 19.4317C28.0014 19.5138 27.9097 19.6062 27.8179 19.6884L26.6658 16.4746C26.6352 16.4027 26.5843 16.3411 26.5435 16.2795C26.5027 16.1357 26.4313 15.992 26.3294 15.8585L19.7228 8.10639L24.3311 1.98684C24.7083 1.48372 24.6063 0.775254 24.1068 0.405616C23.6072 0.0257115 22.9037 0.128388 22.5367 0.631506L17.4186 7.48006C17.3778 7.54167 17.3574 7.60327 17.3268 7.67515C17.3268 7.69568 17.3064 7.70595 17.3064 7.72649C17.2657 7.82916 17.2351 7.93184 17.2249 8.03452C17.2249 8.09612 17.2147 8.15773 17.2147 8.2296C17.2147 8.29121 17.2147 8.34255 17.2351 8.39389C17.2555 8.50683 17.2963 8.60951 17.3472 8.71218L17.3676 8.74299C17.3982 8.80459 17.4288 8.87647 17.4696 8.93808L24.586 17.2857L26.1662 21.7111C25.5137 22.7173 24.9326 23.9084 24.4432 25.2945L22.1187 23.7441C21.9861 23.6517 21.8332 23.6003 21.6905 23.5798C21.5375 23.5387 21.3744 23.5182 21.2113 23.5387L15.0023 24.432L9.42541 22.8508L6.66246 17.4192C6.37699 16.8647 5.70409 16.6491 5.14334 16.9366C4.64377 17.1933 4.41947 17.7888 4.59279 18.3125C4.61318 18.3638 4.63358 18.4152 4.65397 18.4665L7.63102 24.3088C7.63102 24.3088 7.65141 24.3294 7.65141 24.3396C7.76356 24.5655 7.94708 24.7503 8.19177 24.853C8.24274 24.8735 8.29372 24.8941 8.3447 24.9043L14.6251 26.6909C14.6251 26.6909 14.6964 26.6909 14.7372 26.6909C14.7984 26.7012 14.8596 26.7217 14.9207 26.7217C14.9615 26.7217 15.0125 26.7217 15.0635 26.7217H15.094L21.1909 25.8387L23.7805 27.5637C23.4951 28.6726 23.2402 29.8636 23.0363 31.1574C22.9853 31.4962 22.9343 31.8248 22.8833 32.1533L19.3659 32.677C19.3659 32.677 19.2844 32.7078 19.2436 32.7181C19.111 32.7181 18.9683 32.7591 18.8358 32.8207L12.9224 35.5828C12.8511 35.6136 12.8001 35.6752 12.7389 35.7162C12.6879 35.7368 12.637 35.7368 12.5962 35.7676L7.33535 38.889L1.30988 37.8827C0.698154 37.78 0.117017 38.201 0.0150626 38.8171C-0.0766959 39.3818 0.259752 39.9157 0.779717 40.08C0.830694 40.1005 0.881671 40.1108 0.942843 40.1211L7.37614 41.1992C7.37614 41.1992 7.42711 41.1992 7.4577 41.1992C7.53926 41.1992 7.62083 41.1992 7.70239 41.1992C7.77376 41.1992 7.83493 41.1787 7.8961 41.1581C7.91649 41.1581 7.94708 41.1581 7.96747 41.1479C8.01845 41.1273 8.06942 41.1068 8.1102 41.076L8.20196 41.0246L13.7279 37.7492C13.7279 37.7492 13.7686 37.7082 13.789 37.6979C13.8094 37.6979 13.84 37.6774 13.8604 37.6671L19.682 34.9462L22.5265 34.5252C22.4245 35.3363 22.3328 36.1167 22.2614 36.8662L18.8052 39.659C18.642 39.7925 18.5401 39.9671 18.4687 40.1622C18.4381 40.2238 18.3872 40.2751 18.3668 40.3367L16.2665 46.5589C16.2665 46.5589 16.2665 46.6308 16.2563 46.6719C16.2053 46.7848 16.1544 46.908 16.1442 47.0518L15.5223 53.3048L12.4636 58.9212C12.168 59.4757 12.3719 60.1636 12.9122 60.4614C13.4118 60.7284 14.0235 60.5846 14.3498 60.1431C14.3804 60.102 14.411 60.0507 14.4415 59.9993L17.5104 54.3624C17.6021 54.2392 17.6735 54.116 17.7041 53.9619C17.7143 53.9106 17.7245 53.8593 17.7347 53.7977L18.377 47.3495C18.377 47.3495 18.3974 47.2982 18.4075 47.2777L20.4466 41.2403L22.1595 39.8644C22.2206 42.3184 22.7406 44.3411 24.0558 45.8915C25.6769 47.8116 28.3684 48.746 32.2835 48.746H33.874C37.7788 48.746 40.4704 47.8116 42.1016 45.8915C43.4169 44.3411 43.9368 42.3286 43.998 39.8644L45.7006 41.2403L47.7193 47.2058C47.7193 47.2058 47.7397 47.2571 47.7499 47.2777L48.3922 53.7258C48.3922 53.7771 48.4024 53.8387 48.4228 53.8901C48.4636 54.0441 48.5349 54.1673 48.6165 54.2905L51.6853 59.9275C51.6853 59.9275 51.7465 60.0199 51.7771 60.0712C52.1033 60.5127 52.715 60.6565 53.2146 60.3895C53.7652 60.0918 53.9589 59.4038 53.6632 58.8494L50.6046 53.2329L49.9827 46.9799C49.9725 46.8464 49.9215 46.7232 49.8705 46.6C49.8705 46.5589 49.8705 46.5281 49.8603 46.4871L47.7601 40.2648C47.7397 40.2135 47.6989 40.1724 47.6785 40.1211C47.6479 40.0389 47.597 39.9671 47.546 39.8849H47.5358C47.4848 39.7925 47.4338 39.7206 47.3625 39.659L43.9062 36.8662C43.8451 36.1167 43.7533 35.3363 43.6411 34.5252L46.2614 34.9154C46.2614 34.9154 46.2716 34.9256 46.2818 34.9359L52.1951 37.6979C52.1951 37.6979 52.2461 37.7184 52.2664 37.7287C52.2868 37.7492 52.3072 37.7698 52.3276 37.78L57.8535 41.0554L57.9453 41.1171C57.9453 41.1171 58.0472 41.1684 58.088 41.1889C58.1084 41.1889 58.1288 41.1889 58.1594 41.1992C58.2206 41.2197 58.2919 41.23 58.3531 41.2403C58.4347 41.2505 58.5162 41.2608 58.5978 41.2403C58.6284 41.2403 58.6488 41.2403 58.6794 41.2403L65.1126 40.1622C65.1636 40.1622 65.2248 40.1416 65.2758 40.1211C65.7957 39.9568 66.1322 39.4229 66.0404 38.8582C65.9385 38.2421 65.3675 37.8211 64.7456 37.9238L64.715 37.893ZM31.8553 14.2875C31.8553 14.2875 31.8961 14.3594 31.9062 14.3902C32.0796 14.8112 32.4874 15.0884 32.936 15.0884C33.3846 15.0884 33.7924 14.8215 33.9657 14.4005C33.9861 14.3594 34.0065 14.3081 34.0371 14.267C34.4347 14.9755 34.9037 16.7107 35.0158 17.9326C34.9547 17.912 34.8833 17.8915 34.8221 17.8812C34.6284 17.8402 34.4347 17.8094 34.241 17.7786C34.139 17.7683 34.0473 17.7375 33.9453 17.7272C33.6497 17.6964 33.3438 17.6759 33.0277 17.6759C32.7117 17.6759 32.416 17.6964 32.1102 17.7272C32.0082 17.7375 31.9164 17.758 31.8145 17.7786C31.6208 17.8094 31.4169 17.8299 31.2334 17.8812C31.162 17.9018 31.0906 17.9223 31.0192 17.9428C31.0804 16.721 31.4678 15.0268 31.8349 14.2978L31.8553 14.2875ZM28.6131 22.1526C29.4696 21.1156 30.4687 20.4379 31.58 20.1299C31.6004 20.1299 31.6106 20.1196 31.631 20.1196C31.8247 20.0683 32.0286 20.0272 32.2325 20.0067C32.2631 20.0067 32.2937 19.9964 32.3345 19.9861C32.569 19.9553 32.8034 19.945 33.0379 19.945C33.2724 19.945 33.5171 19.9656 33.7414 19.9861C33.772 19.9861 33.8128 19.9964 33.8434 20.0067C34.0473 20.0375 34.2512 20.0683 34.4449 20.1196C34.4653 20.1196 34.4755 20.1299 34.4959 20.1299C35.6174 20.4379 36.6063 21.1053 37.4627 22.1526C37.9113 23.3745 38.1458 24.6374 38.1458 25.8182C38.1458 30.1819 34.9445 30.8288 33.0379 30.8288C31.1314 30.8288 27.93 30.1819 27.93 25.8182C27.93 24.6374 28.1645 23.3745 28.6131 22.1526ZM40.348 44.3719C39.1756 45.758 37.0447 46.4254 33.8332 46.4254H32.2427C29.0311 46.4254 26.9003 45.7478 25.7278 44.3719C23.7295 42.0103 24.2801 37.3488 25.2079 31.4962C25.4118 30.223 25.6565 29.073 25.9317 28.0052C26.7168 31.1882 29.286 33.098 33.0379 33.098C36.7898 33.098 39.3591 31.1984 40.1441 28.0052C40.4194 29.0628 40.6641 30.223 40.868 31.4962C41.7958 37.3488 42.3463 42.0103 40.348 44.3719Z" fill="#001457"/>
</svg>
