<svg width="253" height="45" viewBox="0 0 253 45" fill="none" xmlns="http://www.w3.org/2000/svg">
<path fill-rule="evenodd" clip-rule="evenodd" d="M7.26743 0.172119H35.1006L32.0902 9.21333H24.8228L13.1158 43.9693H0L11.6968 9.04102H4.25708L7.26743 0.172119Z" fill="#20AA4D"/>
<path fill-rule="evenodd" clip-rule="evenodd" d="M37.584 0.172119H61.3425L58.3322 8.85859H47.5172L44.6791 17.018H55.6664L52.3013 26.2416H41.3039L38.476 34.9281H49.291L45.9157 44.1416H21.9849L37.584 0.172119Z" fill="#20AA4D"/>
<path fill-rule="evenodd" clip-rule="evenodd" d="M72.3295 17.8998H74.2756C76.4041 17.7275 77.1136 16.4808 77.1136 15.9537C77.2961 15.4266 78.3502 12.7609 78.8874 10.9871C79.5969 8.50382 77.6407 8.33152 77.6407 8.33152H75.6946L72.3295 17.9099V17.8998ZM64.8796 0.172119H84.3811C84.3811 0.172119 89.1652 0.344429 90.939 1.9459C92.7128 3.53724 93.777 5.84823 92.8851 9.39579C92.0032 12.5886 91.1113 14.8894 90.5842 16.3085C90.0571 17.545 88.2834 20.2108 84.7358 21.4474C82.7897 22.1569 81.8977 22.3292 79.2421 22.3292C78.7151 22.3292 79.2422 22.6839 79.4145 22.6839C79.5868 22.5116 82.4248 22.8562 84.0263 23.9307C85.6176 24.9949 86.6819 26.941 85.9724 29.4243C85.0906 31.9076 82.2525 40.0569 81.7153 41.1211C81.3605 42.3678 81.5329 42.7125 82.0701 44.1315H68.9542C68.9542 44.1315 68.4271 44.3038 68.2447 43.2497C68.0724 42.0029 68.2447 41.4759 68.7718 39.8846C69.2988 38.1108 72.6741 28.7148 72.6741 28.7148C72.6741 28.7148 73.0288 27.833 72.3193 27.2958C71.6098 26.941 71.0828 26.941 71.0828 26.941H69.6637C69.6637 26.941 68.9542 26.941 68.7718 27.6505C68.5995 28.36 63.0957 44.1416 63.0957 44.1416H49.4426L64.8694 0.172119H64.8796Z" fill="#20AA4D"/>
<path fill-rule="evenodd" clip-rule="evenodd" d="M99.1094 0.172308H117.547L113.827 23.5761L127.297 0H144.315L129.598 44.1418L117.02 43.9695L126.588 17.7277L110.989 43.9695H102.657L106.377 15.4268L97.1531 43.9695H84.7468L99.1094 0.172308Z" fill="#20AA4D"/>
<path fill-rule="evenodd" clip-rule="evenodd" d="M148.4 0H161.515L146.271 43.9695L133.145 44.1418L148.4 0Z" fill="#20AA4D"/>
<path fill-rule="evenodd" clip-rule="evenodd" d="M165.235 0.172119H179.77L178.534 21.6298L185.984 0.172119H198.035C198.035 0.172119 183.5 41.6583 182.608 43.9693H168.955L170.557 18.2647L161.87 44.1518L149.636 43.9794L165.235 0.182257V0.172119Z" fill="#20AA4D"/>
<path fill-rule="evenodd" clip-rule="evenodd" d="M201.765 0.172119H214.881L199.636 44.1416H186.51L201.765 0.172119Z" fill="#20AA4D"/>
<path fill-rule="evenodd" clip-rule="evenodd" d="M217.182 0.172119H231.017L229.77 12.7609L238.102 0.172119H252.292L235.274 21.4474L237.048 44.1416H223.567L224.277 29.6067L216.3 43.9693H201.41L218.074 21.2751L217.182 0.172119Z" fill="#20AA4D"/>
<path d="M240.687 40.209H241.173C241.72 40.209 242.197 40.0062 242.197 39.4893C242.197 39.1244 241.923 38.7595 241.173 38.7595C240.95 38.7595 240.808 38.7697 240.687 38.79V40.209ZM240.687 42.5402H240.018V38.344C240.372 38.2933 240.707 38.2426 241.204 38.2426C241.842 38.2426 242.258 38.3744 242.511 38.5568C242.765 38.7393 242.896 39.0231 242.896 39.4285C242.896 39.986 242.531 40.3103 242.075 40.4522V40.4826C242.45 40.5536 242.694 40.8881 242.775 41.5064C242.876 42.1551 242.977 42.4085 243.048 42.5402H242.339C242.237 42.3983 242.136 42.0132 242.055 41.4658C241.954 40.9286 241.69 40.736 241.153 40.736H240.687V42.5402ZM241.386 37.1682C239.734 37.1682 238.376 38.5872 238.376 40.3407C238.376 42.0943 239.734 43.5335 241.406 43.5335C243.079 43.5538 244.417 42.1348 244.417 40.361C244.417 38.5872 243.079 37.1682 241.406 37.1682H241.386ZM241.406 36.5803C243.464 36.5803 245.106 38.2528 245.106 40.3407C245.106 42.4287 243.464 44.1214 241.386 44.1214C239.308 44.1214 237.656 42.4693 237.656 40.3407C237.656 38.2122 239.328 36.5803 241.386 36.5803H241.406Z" fill="#20AA4D"/>
</svg>
