<?xml version="1.0" encoding="UTF-8" standalone="no"?>
<!-- Created with Inkscape (http://www.inkscape.org/) -->

<svg
   xmlns:dc="http://purl.org/dc/elements/1.1/"
   xmlns:cc="http://creativecommons.org/ns#"
   xmlns:rdf="http://www.w3.org/1999/02/22-rdf-syntax-ns#"
   xmlns:svg="http://www.w3.org/2000/svg"
   xmlns="http://www.w3.org/2000/svg"
   xmlns:sodipodi="http://sodipodi.sourceforge.net/DTD/sodipodi-0.dtd"
   xmlns:inkscape="http://www.inkscape.org/namespaces/inkscape"
   width="122.87559"
   height="22.66153"
   viewBox="0 0 32.510833 5.9958632"
   version="1.1"
   id="svg31269"
   inkscape:version="0.92.0 r15299"
   sodipodi:docname="terminix.svg">
  <defs
     id="defs31263" />
  <sodipodi:namedview
     id="base"
     pagecolor="#ffffff"
     bordercolor="#666666"
     borderopacity="1.0"
     inkscape:pageopacity="0.0"
     inkscape:pageshadow="2"
     inkscape:zoom="6.5804805"
     inkscape:cx="60.937799"
     inkscape:cy="10.830765"
     inkscape:document-units="mm"
     inkscape:current-layer="layer1"
     showgrid="false"
     inkscape:window-width="1280"
     inkscape:window-height="744"
     inkscape:window-x="-4"
     inkscape:window-y="-4"
     inkscape:window-maximized="1"
     fit-margin-top="0"
     fit-margin-left="0"
     fit-margin-right="0"
     fit-margin-bottom="0"
     units="px" />
  <metadata
     id="metadata31266">
    <rdf:RDF>
      <cc:Work
         rdf:about="">
        <dc:format>image/svg+xml</dc:format>
        <dc:type
           rdf:resource="http://purl.org/dc/dcmitype/StillImage" />
        <dc:title></dc:title>
      </cc:Work>
    </rdf:RDF>
  </metadata>
  <g
     inkscape:label="Layer 1"
     inkscape:groupmode="layer"
     id="layer1"
     transform="translate(-59.472112,-213.73883)">
    <g
       transform="translate(27.128688,82.422061)"
       id="g31243"
       style="fill:#0c8f43;fill-opacity:1">
      <path
         inkscape:connector-curvature="0"
         id="path30312"
         style="fill:#0c8f43;fill-opacity:1;fill-rule:nonzero;stroke:none;stroke-width:0.35277778"
         d="m 33.412692,131.47023 3.556352,-0.006 -0.388055,1.15217 h -0.921103 l -1.500717,4.44676 h -1.683455 l 1.514122,-4.45805 -0.960967,0.006 z" />
      <path
         inkscape:connector-curvature="0"
         id="path30314"
         style="fill:#0c8f43;fill-opacity:1;fill-rule:nonzero;stroke:none;stroke-width:0.35277778"
         d="m 37.276878,131.46388 3.044155,-0.005 -0.389114,1.12606 H 38.56173 l -0.359481,1.02729 h 1.386417 l -0.417336,1.18886 -1.398094,0.005 -0.378177,1.09608 h 1.381865 l -0.431447,1.19168 h -3.045213 z" />
      <path
         inkscape:connector-curvature="0"
         id="path30316"
         style="fill:#0c8f43;fill-opacity:1;fill-rule:nonzero;stroke:none;stroke-width:0.35277778"
         d="m 40.772588,131.46952 2.493786,-0.005 c 0,0 0.608189,0.0257 0.837495,0.2353 0.230364,0.20885 0.359128,0.5006 0.247297,0.94651 -0.101953,0.39758 -0.226483,0.70555 -0.29845,0.8763 -0.0702,0.16827 -0.287514,0.51188 -0.736247,0.66957 -0.264936,0.0924 -0.373239,0.11395 -0.696736,0.11395 -0.0762,0 -0.0092,0.0321 0.01517,0.0282 0.03175,-0.001 0.378883,0.0413 0.590197,0.17074 0.208492,0.12841 0.347134,0.38347 0.245181,0.70133 -0.103011,0.31644 -0.482247,1.35043 -0.537986,1.50424 -0.05715,0.15381 -0.03069,0.18874 0.04621,0.37359 -0.363009,-0.007 -1.688395,-0.007 -1.688395,-0.007 0,0 -0.0635,0.0261 -0.08749,-0.11712 -0.02575,-0.14288 0.0046,-0.20885 0.0762,-0.42334 0.07161,-0.2159 0.491067,-1.41852 0.491067,-1.41852 0,0 0.03598,-0.12735 -0.04516,-0.17462 -0.08079,-0.0455 -0.153811,-0.0508 -0.153811,-0.0508 l -0.183444,0.005 c 0,0 -0.08149,-0.005 -0.108656,0.0822 -0.02434,0.0861 -0.737658,2.09691 -0.737658,2.09691 l -1.745192,0.007 z m 0.962025,2.26625 c 0,0 -0.0099,-0.005 0.245534,-0.009 0.255411,-0.005 0.34925,-0.17991 0.368652,-0.24165 0.02011,-0.0617 0.148873,-0.41734 0.215548,-0.63888 0.09172,-0.30692 -0.154164,-0.32773 -0.154164,-0.32773 l -0.261056,-0.0116 z" />
      <path
         inkscape:connector-curvature="0"
         id="path30318"
         style="fill:#0c8f43;fill-opacity:1;fill-rule:nonzero;stroke:none;stroke-width:0.35277778"
         d="m 45.148797,131.47023 2.35338,-0.006 -0.464961,2.98414 1.714147,-2.99931 h 2.175933 l -1.888772,5.62927 -1.596672,-0.009 1.21285,-3.36867 -1.980142,3.3528 h -1.070327 l 0.461786,-3.64455 -1.168047,3.64984 h -1.597025 z" />
      <path
         inkscape:connector-curvature="0"
         id="path30320"
         style="fill:#0c8f43;fill-opacity:1;fill-rule:nonzero;stroke:none;stroke-width:0.35277778"
         d="m 51.435296,131.4547 h 1.692628 l -1.950155,5.61834 -1.689806,0.004 z" />
      <path
         inkscape:connector-curvature="0"
         id="path30322"
         style="fill:#0c8f43;fill-opacity:1;fill-rule:nonzero;stroke:none;stroke-width:0.35277778"
         d="m 53.593238,131.47023 1.867253,-0.006 -0.161925,2.73932 0.936272,-2.73932 1.555397,-0.004 c 0,0 -1.862666,5.31636 -1.964619,5.60317 -0.28187,0.006 -1.751542,0.0102 -1.751542,0.0102 l 0.206022,-3.2893 -1.121833,3.29424 -1.545519,-0.005 z" />
      <path
         inkscape:connector-curvature="0"
         id="path30324"
         style="fill:#0c8f43;fill-opacity:1;fill-rule:nonzero;stroke:none;stroke-width:0.35277778"
         d="m 58.255902,131.48046 1.688394,-0.0159 -1.944158,5.6127 -1.694392,0.0123 z" />
      <path
         inkscape:connector-curvature="0"
         id="path30326"
         style="fill:#0c8f43;fill-opacity:1;fill-rule:nonzero;stroke:none;stroke-width:0.35277778"
         d="m 60.222638,131.47517 1.780116,-0.005 -0.162983,1.60761 1.058686,-1.6129 1.823509,-0.005 -2.182637,2.7365 0.226484,2.88114 -1.725436,0.007 0.104069,-1.85349 -1.030464,1.84256 -1.897591,-0.004 2.11843,-2.9083 z" />
      <path
         inkscape:connector-curvature="0"
         id="path30328"
         style="fill:#0c8f43;fill-opacity:1;fill-rule:nonzero;stroke:none;stroke-width:0.35277778"
         d="m 63.398696,136.58057 c 0.07549,0 0.140053,0.0275 0.195792,0.0804 0.05433,0.054 0.08008,0.11994 0.08008,0.19473 0,0.0783 -0.02575,0.14394 -0.08008,0.19791 -0.05398,0.0543 -0.120297,0.0818 -0.195792,0.0818 -0.07902,0 -0.14358,-0.0275 -0.19685,-0.0818 -0.05468,-0.054 -0.08114,-0.11959 -0.08114,-0.19791 0,-0.0748 0.02646,-0.14076 0.08114,-0.19473 0.05362,-0.0529 0.119239,-0.0804 0.19685,-0.0804 m 0.320322,0.27516 c 0,-0.0885 -0.03104,-0.16404 -0.09313,-0.22613 -0.06315,-0.061 -0.1397,-0.0928 -0.228247,-0.0928 -0.08855,0 -0.164747,0.0317 -0.227542,0.0928 -0.06244,0.0621 -0.09419,0.13758 -0.09419,0.22613 0,0.09 0.03069,0.16475 0.09349,0.22931 0.0635,0.0624 0.138288,0.0953 0.228247,0.0953 0.08855,0 0.1651,-0.0328 0.228247,-0.0953 0.06209,-0.0646 0.09313,-0.1397 0.09313,-0.22931 m -0.236008,-0.067 c 0,0.0261 -0.01164,0.0444 -0.0381,0.0522 -0.01235,0.007 -0.03281,0.0102 -0.06032,0.0102 h -0.0568 v -0.12595 h 0.05292 c 0.03704,0 0.06103,0.004 0.07761,0.0117 0.01764,0.009 0.02469,0.0261 0.02469,0.0519 m -0.216606,-0.10936 v 0.35313 h 0.06138 v -0.13652 h 0.04904 c 0.03528,0 0.05715,0.003 0.06985,0.0109 0.02505,0.0123 0.03634,0.0385 0.03634,0.0776 v 0.0293 l 7.06e-4,0.0106 c 3.52e-4,0.001 3.52e-4,0.002 3.52e-4,0.002 0.0021,0.002 0.0021,0.004 0.0021,0.006 h 0.05644 l -7.05e-4,-0.006 c -0.0014,-0.002 -0.0032,-0.007 -0.0032,-0.0155 0,-0.0113 -0.0011,-0.0191 -0.0011,-0.0296 v -0.0233 c 0,-0.018 -0.0064,-0.0363 -0.01976,-0.055 -0.01305,-0.0183 -0.03175,-0.0289 -0.05962,-0.0335 0.02152,-0.004 0.0388,-0.0106 0.05045,-0.0173 0.02258,-0.0159 0.03387,-0.0374 0.03387,-0.0713 0,-0.0437 -0.01799,-0.0723 -0.05433,-0.0892 -0.02117,-0.009 -0.05433,-0.0123 -0.09772,-0.0123 z" />
    </g>
  </g>
</svg>
